<mxfile host="Electron" agent="Mozilla/5.0 (Windows NT 10.0; Win64; x64) AppleWebKit/537.36 (KHTML, like Gecko) draw.io/24.7.8 Chrome/128.0.6613.36 Electron/32.0.1 Safari/537.36" version="24.7.8">
  <diagram name="Page-1" id="U8iFAINuJi-PB0ZfpJhB">
    <mxGraphModel dx="2390" dy="1473" grid="1" gridSize="10" guides="1" tooltips="1" connect="1" arrows="1" fold="1" page="1" pageScale="1" pageWidth="1920" pageHeight="1200" math="0" shadow="0">
      <root>
        <mxCell id="0" />
        <mxCell id="1" parent="0" />
        <mxCell id="Ky6rxVkZPWlq-gp3w1kQ-504" value="4" style="text;html=1;align=center;verticalAlign=middle;resizable=0;points=[];autosize=1;strokeColor=none;fillColor=none;" vertex="1" parent="1">
          <mxGeometry x="1285" y="876" width="30" height="30" as="geometry" />
        </mxCell>
        <mxCell id="Ky6rxVkZPWlq-gp3w1kQ-506" value="4" style="text;html=1;align=center;verticalAlign=middle;resizable=0;points=[];autosize=1;strokeColor=none;fillColor=none;" vertex="1" parent="1">
          <mxGeometry x="1285" y="897" width="30" height="30" as="geometry" />
        </mxCell>
        <mxCell id="Ky6rxVkZPWlq-gp3w1kQ-496" value="4" style="text;html=1;align=center;verticalAlign=middle;resizable=0;points=[];autosize=1;strokeColor=none;fillColor=none;" vertex="1" parent="1">
          <mxGeometry x="1285" y="784" width="30" height="30" as="geometry" />
        </mxCell>
        <mxCell id="Ky6rxVkZPWlq-gp3w1kQ-502" value="4" style="text;html=1;align=center;verticalAlign=middle;resizable=0;points=[];autosize=1;strokeColor=none;fillColor=none;" vertex="1" parent="1">
          <mxGeometry x="1285" y="806" width="30" height="30" as="geometry" />
        </mxCell>
        <mxCell id="Ky6rxVkZPWlq-gp3w1kQ-490" value="4" style="text;html=1;align=center;verticalAlign=middle;resizable=0;points=[];autosize=1;strokeColor=none;fillColor=none;" vertex="1" parent="1">
          <mxGeometry x="1285" y="697" width="30" height="30" as="geometry" />
        </mxCell>
        <mxCell id="Ky6rxVkZPWlq-gp3w1kQ-494" value="4" style="text;html=1;align=center;verticalAlign=middle;resizable=0;points=[];autosize=1;strokeColor=none;fillColor=none;" vertex="1" parent="1">
          <mxGeometry x="1285" y="718" width="30" height="30" as="geometry" />
        </mxCell>
        <mxCell id="Ky6rxVkZPWlq-gp3w1kQ-482" value="4" style="text;html=1;align=center;verticalAlign=middle;resizable=0;points=[];autosize=1;strokeColor=none;fillColor=none;" vertex="1" parent="1">
          <mxGeometry x="1285" y="627" width="30" height="30" as="geometry" />
        </mxCell>
        <mxCell id="Ky6rxVkZPWlq-gp3w1kQ-481" value="4" style="text;html=1;align=center;verticalAlign=middle;resizable=0;points=[];autosize=1;strokeColor=none;fillColor=none;" vertex="1" parent="1">
          <mxGeometry x="1285" y="607" width="30" height="30" as="geometry" />
        </mxCell>
        <mxCell id="Ky6rxVkZPWlq-gp3w1kQ-226" value="cout1" style="text;html=1;align=center;verticalAlign=middle;resizable=0;points=[];autosize=1;strokeColor=none;fillColor=none;fontColor=#999999;" vertex="1" parent="1">
          <mxGeometry x="1085" y="385" width="50" height="30" as="geometry" />
        </mxCell>
        <mxCell id="Ky6rxVkZPWlq-gp3w1kQ-1" value="" style="shape=or;whiteSpace=wrap;html=1;" vertex="1" parent="1">
          <mxGeometry x="159" y="100" width="60" height="80" as="geometry" />
        </mxCell>
        <mxCell id="Ky6rxVkZPWlq-gp3w1kQ-2" value="" style="ellipse;whiteSpace=wrap;html=1;aspect=fixed;" vertex="1" parent="1">
          <mxGeometry x="149" y="155" width="10" height="10" as="geometry" />
        </mxCell>
        <mxCell id="Ky6rxVkZPWlq-gp3w1kQ-4" value="" style="endArrow=none;html=1;rounded=0;" edge="1" parent="1">
          <mxGeometry width="50" height="50" relative="1" as="geometry">
            <mxPoint x="119" y="160" as="sourcePoint" />
            <mxPoint x="149" y="160" as="targetPoint" />
          </mxGeometry>
        </mxCell>
        <mxCell id="Ky6rxVkZPWlq-gp3w1kQ-5" value="" style="endArrow=none;html=1;rounded=0;" edge="1" parent="1">
          <mxGeometry width="50" height="50" relative="1" as="geometry">
            <mxPoint x="119" y="120" as="sourcePoint" />
            <mxPoint x="159" y="120" as="targetPoint" />
          </mxGeometry>
        </mxCell>
        <mxCell id="Ky6rxVkZPWlq-gp3w1kQ-6" value="1&#39;b1" style="text;html=1;align=center;verticalAlign=middle;resizable=0;points=[];autosize=1;strokeColor=none;fillColor=none;" vertex="1" parent="1">
          <mxGeometry x="80" y="105" width="50" height="30" as="geometry" />
        </mxCell>
        <mxCell id="Ky6rxVkZPWlq-gp3w1kQ-7" value="in" style="text;html=1;align=center;verticalAlign=middle;resizable=0;points=[];autosize=1;strokeColor=none;fillColor=none;" vertex="1" parent="1">
          <mxGeometry x="90" y="145" width="30" height="30" as="geometry" />
        </mxCell>
        <mxCell id="Ky6rxVkZPWlq-gp3w1kQ-8" value="" style="endArrow=none;html=1;rounded=0;" edge="1" parent="1">
          <mxGeometry width="50" height="50" relative="1" as="geometry">
            <mxPoint x="219" y="140" as="sourcePoint" />
            <mxPoint x="249" y="140" as="targetPoint" />
          </mxGeometry>
        </mxCell>
        <mxCell id="Ky6rxVkZPWlq-gp3w1kQ-9" value="out" style="text;html=1;align=center;verticalAlign=middle;resizable=0;points=[];autosize=1;strokeColor=none;fillColor=none;" vertex="1" parent="1">
          <mxGeometry x="219" y="115" width="40" height="30" as="geometry" />
        </mxCell>
        <mxCell id="Ky6rxVkZPWlq-gp3w1kQ-10" value="Uni_not" style="text;html=1;align=center;verticalAlign=middle;resizable=0;points=[];autosize=1;strokeColor=none;fillColor=none;" vertex="1" parent="1">
          <mxGeometry x="219" y="165" width="60" height="30" as="geometry" />
        </mxCell>
        <mxCell id="Ky6rxVkZPWlq-gp3w1kQ-11" value="Uni_not" style="rounded=1;whiteSpace=wrap;html=1;" vertex="1" parent="1">
          <mxGeometry x="159" y="240" width="80" height="60" as="geometry" />
        </mxCell>
        <mxCell id="Ky6rxVkZPWlq-gp3w1kQ-12" value="" style="endArrow=none;html=1;rounded=0;" edge="1" parent="1">
          <mxGeometry width="50" height="50" relative="1" as="geometry">
            <mxPoint x="119" y="270" as="sourcePoint" />
            <mxPoint x="159" y="270" as="targetPoint" />
          </mxGeometry>
        </mxCell>
        <mxCell id="Ky6rxVkZPWlq-gp3w1kQ-13" value="b" style="text;html=1;align=center;verticalAlign=middle;resizable=0;points=[];autosize=1;strokeColor=none;fillColor=none;" vertex="1" parent="1">
          <mxGeometry x="90" y="255" width="30" height="30" as="geometry" />
        </mxCell>
        <mxCell id="Ky6rxVkZPWlq-gp3w1kQ-14" value="" style="endArrow=none;html=1;rounded=0;" edge="1" parent="1">
          <mxGeometry width="50" height="50" relative="1" as="geometry">
            <mxPoint x="239" y="270" as="sourcePoint" />
            <mxPoint x="269" y="270" as="targetPoint" />
          </mxGeometry>
        </mxCell>
        <mxCell id="Ky6rxVkZPWlq-gp3w1kQ-15" value="" style="endArrow=none;html=1;rounded=0;" edge="1" parent="1">
          <mxGeometry width="50" height="50" relative="1" as="geometry">
            <mxPoint x="279" y="230" as="sourcePoint" />
            <mxPoint x="119" y="230" as="targetPoint" />
          </mxGeometry>
        </mxCell>
        <mxCell id="Ky6rxVkZPWlq-gp3w1kQ-16" value="a" style="text;html=1;align=center;verticalAlign=middle;resizable=0;points=[];autosize=1;strokeColor=none;fillColor=none;" vertex="1" parent="1">
          <mxGeometry x="90" y="214" width="30" height="30" as="geometry" />
        </mxCell>
        <mxCell id="Ky6rxVkZPWlq-gp3w1kQ-26" value="" style="shape=or;whiteSpace=wrap;html=1;" vertex="1" parent="1">
          <mxGeometry x="279" y="210" width="60" height="80" as="geometry" />
        </mxCell>
        <mxCell id="Ky6rxVkZPWlq-gp3w1kQ-27" value="" style="ellipse;whiteSpace=wrap;html=1;aspect=fixed;" vertex="1" parent="1">
          <mxGeometry x="269" y="265" width="10" height="10" as="geometry" />
        </mxCell>
        <mxCell id="Ky6rxVkZPWlq-gp3w1kQ-28" value="" style="endArrow=none;html=1;rounded=0;" edge="1" parent="1">
          <mxGeometry width="50" height="50" relative="1" as="geometry">
            <mxPoint x="339" y="250" as="sourcePoint" />
            <mxPoint x="369" y="250" as="targetPoint" />
          </mxGeometry>
        </mxCell>
        <mxCell id="Ky6rxVkZPWlq-gp3w1kQ-29" value="out" style="text;html=1;align=center;verticalAlign=middle;resizable=0;points=[];autosize=1;strokeColor=none;fillColor=none;" vertex="1" parent="1">
          <mxGeometry x="339" y="225" width="40" height="30" as="geometry" />
        </mxCell>
        <mxCell id="Ky6rxVkZPWlq-gp3w1kQ-30" value="Uni_and" style="text;html=1;align=center;verticalAlign=middle;resizable=0;points=[];autosize=1;strokeColor=none;fillColor=none;" vertex="1" parent="1">
          <mxGeometry x="334" y="275" width="70" height="30" as="geometry" />
        </mxCell>
        <mxCell id="Ky6rxVkZPWlq-gp3w1kQ-31" value="Uni_and" style="rounded=1;whiteSpace=wrap;html=1;" vertex="1" parent="1">
          <mxGeometry x="159" y="350" width="80" height="60" as="geometry" />
        </mxCell>
        <mxCell id="Ky6rxVkZPWlq-gp3w1kQ-32" value="" style="endArrow=none;html=1;rounded=0;" edge="1" parent="1">
          <mxGeometry width="50" height="50" relative="1" as="geometry">
            <mxPoint x="119" y="370" as="sourcePoint" />
            <mxPoint x="159" y="370" as="targetPoint" />
          </mxGeometry>
        </mxCell>
        <mxCell id="Ky6rxVkZPWlq-gp3w1kQ-33" value="" style="endArrow=none;html=1;rounded=0;" edge="1" parent="1">
          <mxGeometry width="50" height="50" relative="1" as="geometry">
            <mxPoint x="119" y="390" as="sourcePoint" />
            <mxPoint x="159" y="390" as="targetPoint" />
          </mxGeometry>
        </mxCell>
        <mxCell id="Ky6rxVkZPWlq-gp3w1kQ-34" value="a" style="text;html=1;align=center;verticalAlign=middle;resizable=0;points=[];autosize=1;strokeColor=none;fillColor=none;" vertex="1" parent="1">
          <mxGeometry x="90" y="354" width="30" height="30" as="geometry" />
        </mxCell>
        <mxCell id="Ky6rxVkZPWlq-gp3w1kQ-35" value="b" style="text;html=1;align=center;verticalAlign=middle;resizable=0;points=[];autosize=1;strokeColor=none;fillColor=none;" vertex="1" parent="1">
          <mxGeometry x="90" y="376" width="30" height="30" as="geometry" />
        </mxCell>
        <mxCell id="Ky6rxVkZPWlq-gp3w1kQ-36" value="Uni_not" style="rounded=1;whiteSpace=wrap;html=1;" vertex="1" parent="1">
          <mxGeometry x="279" y="350" width="80" height="60" as="geometry" />
        </mxCell>
        <mxCell id="Ky6rxVkZPWlq-gp3w1kQ-37" value="" style="endArrow=none;html=1;rounded=0;exitX=1;exitY=0.5;exitDx=0;exitDy=0;" edge="1" parent="1" source="Ky6rxVkZPWlq-gp3w1kQ-31">
          <mxGeometry width="50" height="50" relative="1" as="geometry">
            <mxPoint x="229" y="430" as="sourcePoint" />
            <mxPoint x="279" y="380" as="targetPoint" />
          </mxGeometry>
        </mxCell>
        <mxCell id="Ky6rxVkZPWlq-gp3w1kQ-38" value="" style="endArrow=none;html=1;rounded=0;" edge="1" parent="1">
          <mxGeometry width="50" height="50" relative="1" as="geometry">
            <mxPoint x="359" y="380" as="sourcePoint" />
            <mxPoint x="389" y="380" as="targetPoint" />
          </mxGeometry>
        </mxCell>
        <mxCell id="Ky6rxVkZPWlq-gp3w1kQ-39" value="out" style="text;html=1;align=center;verticalAlign=middle;resizable=0;points=[];autosize=1;strokeColor=none;fillColor=none;" vertex="1" parent="1">
          <mxGeometry x="359" y="354" width="40" height="30" as="geometry" />
        </mxCell>
        <mxCell id="Ky6rxVkZPWlq-gp3w1kQ-40" value="Uni_nand" style="text;html=1;align=center;verticalAlign=middle;resizable=0;points=[];autosize=1;strokeColor=none;fillColor=none;" vertex="1" parent="1">
          <mxGeometry x="369" y="398" width="70" height="30" as="geometry" />
        </mxCell>
        <mxCell id="Ky6rxVkZPWlq-gp3w1kQ-41" value="&lt;font color=&quot;#999999&quot;&gt;con2&lt;/font&gt;" style="text;html=1;align=center;verticalAlign=middle;resizable=0;points=[];autosize=1;strokeColor=none;fillColor=none;" vertex="1" parent="1">
          <mxGeometry x="190.5" y="517" width="50" height="30" as="geometry" />
        </mxCell>
        <mxCell id="Ky6rxVkZPWlq-gp3w1kQ-42" value="con1" style="text;html=1;align=center;verticalAlign=middle;resizable=0;points=[];autosize=1;strokeColor=none;fillColor=none;fontColor=#999999;" vertex="1" parent="1">
          <mxGeometry x="191.5" y="457" width="50" height="30" as="geometry" />
        </mxCell>
        <mxCell id="Ky6rxVkZPWlq-gp3w1kQ-43" value="Uni_not" style="rounded=1;whiteSpace=wrap;html=1;" vertex="1" parent="1">
          <mxGeometry x="139" y="459" width="60" height="40" as="geometry" />
        </mxCell>
        <mxCell id="Ky6rxVkZPWlq-gp3w1kQ-44" value="Uni_not" style="rounded=1;whiteSpace=wrap;html=1;" vertex="1" parent="1">
          <mxGeometry x="139" y="505" width="60" height="40" as="geometry" />
        </mxCell>
        <mxCell id="Ky6rxVkZPWlq-gp3w1kQ-45" value="" style="endArrow=none;html=1;rounded=0;" edge="1" parent="1">
          <mxGeometry width="50" height="50" relative="1" as="geometry">
            <mxPoint x="119" y="479" as="sourcePoint" />
            <mxPoint x="139" y="479" as="targetPoint" />
          </mxGeometry>
        </mxCell>
        <mxCell id="Ky6rxVkZPWlq-gp3w1kQ-46" value="" style="endArrow=none;html=1;rounded=0;" edge="1" parent="1">
          <mxGeometry width="50" height="50" relative="1" as="geometry">
            <mxPoint x="119" y="525" as="sourcePoint" />
            <mxPoint x="139" y="525" as="targetPoint" />
          </mxGeometry>
        </mxCell>
        <mxCell id="Ky6rxVkZPWlq-gp3w1kQ-49" value="" style="endArrow=none;html=1;rounded=0;" edge="1" parent="1">
          <mxGeometry width="50" height="50" relative="1" as="geometry">
            <mxPoint x="319" y="502" as="sourcePoint" />
            <mxPoint x="339" y="502" as="targetPoint" />
          </mxGeometry>
        </mxCell>
        <mxCell id="Ky6rxVkZPWlq-gp3w1kQ-50" value="out" style="text;html=1;align=center;verticalAlign=middle;resizable=0;points=[];autosize=1;strokeColor=none;fillColor=none;" vertex="1" parent="1">
          <mxGeometry x="319" y="475" width="40" height="30" as="geometry" />
        </mxCell>
        <mxCell id="Ky6rxVkZPWlq-gp3w1kQ-51" value="a" style="text;html=1;align=center;verticalAlign=middle;resizable=0;points=[];autosize=1;strokeColor=none;fillColor=none;" vertex="1" parent="1">
          <mxGeometry x="94" y="464" width="30" height="30" as="geometry" />
        </mxCell>
        <mxCell id="Ky6rxVkZPWlq-gp3w1kQ-52" value="b" style="text;html=1;align=center;verticalAlign=middle;resizable=0;points=[];autosize=1;strokeColor=none;fillColor=none;" vertex="1" parent="1">
          <mxGeometry x="94" y="510" width="30" height="30" as="geometry" />
        </mxCell>
        <mxCell id="Ky6rxVkZPWlq-gp3w1kQ-55" value="" style="endArrow=none;html=1;rounded=0;" edge="1" parent="1">
          <mxGeometry width="50" height="50" relative="1" as="geometry">
            <mxPoint x="199" y="523.5" as="sourcePoint" />
            <mxPoint x="244" y="523.5" as="targetPoint" />
          </mxGeometry>
        </mxCell>
        <mxCell id="Ky6rxVkZPWlq-gp3w1kQ-56" value="" style="endArrow=none;html=1;rounded=0;" edge="1" parent="1">
          <mxGeometry width="50" height="50" relative="1" as="geometry">
            <mxPoint x="199" y="479.5" as="sourcePoint" />
            <mxPoint x="244" y="479.5" as="targetPoint" />
          </mxGeometry>
        </mxCell>
        <mxCell id="Ky6rxVkZPWlq-gp3w1kQ-57" value="Uni_nand" style="rounded=1;whiteSpace=wrap;html=1;" vertex="1" parent="1">
          <mxGeometry x="244" y="470" width="80" height="60" as="geometry" />
        </mxCell>
        <mxCell id="Ky6rxVkZPWlq-gp3w1kQ-58" value="Uni_or" style="text;html=1;align=center;verticalAlign=middle;resizable=0;points=[];autosize=1;strokeColor=none;fillColor=none;" vertex="1" parent="1">
          <mxGeometry x="339" y="517" width="60" height="30" as="geometry" />
        </mxCell>
        <mxCell id="Ky6rxVkZPWlq-gp3w1kQ-59" value="&lt;font color=&quot;#999999&quot;&gt;con2&lt;/font&gt;" style="text;html=1;align=center;verticalAlign=middle;resizable=0;points=[];autosize=1;strokeColor=none;fillColor=none;" vertex="1" parent="1">
          <mxGeometry x="304" y="695" width="50" height="30" as="geometry" />
        </mxCell>
        <mxCell id="Ky6rxVkZPWlq-gp3w1kQ-60" value="Uni_and" style="rounded=1;whiteSpace=wrap;html=1;" vertex="1" parent="1">
          <mxGeometry x="249" y="597" width="60" height="40" as="geometry" />
        </mxCell>
        <mxCell id="Ky6rxVkZPWlq-gp3w1kQ-61" value="" style="endArrow=none;html=1;rounded=0;exitX=1;exitY=0.5;exitDx=0;exitDy=0;" edge="1" parent="1" source="Ky6rxVkZPWlq-gp3w1kQ-71">
          <mxGeometry width="50" height="50" relative="1" as="geometry">
            <mxPoint x="229" y="605" as="sourcePoint" />
            <mxPoint x="249" y="605" as="targetPoint" />
          </mxGeometry>
        </mxCell>
        <mxCell id="Ky6rxVkZPWlq-gp3w1kQ-62" value="" style="endArrow=none;html=1;rounded=0;" edge="1" parent="1">
          <mxGeometry width="50" height="50" relative="1" as="geometry">
            <mxPoint x="319" y="615" as="sourcePoint" />
            <mxPoint x="319" y="650" as="targetPoint" />
          </mxGeometry>
        </mxCell>
        <mxCell id="Ky6rxVkZPWlq-gp3w1kQ-63" value="" style="endArrow=none;html=1;rounded=0;" edge="1" parent="1">
          <mxGeometry width="50" height="50" relative="1" as="geometry">
            <mxPoint x="139" y="630" as="sourcePoint" />
            <mxPoint x="249" y="630" as="targetPoint" />
          </mxGeometry>
        </mxCell>
        <mxCell id="Ky6rxVkZPWlq-gp3w1kQ-64" value="&lt;font color=&quot;#999999&quot;&gt;con1&lt;/font&gt;" style="text;html=1;align=center;verticalAlign=middle;resizable=0;points=[];autosize=1;strokeColor=none;fillColor=none;" vertex="1" parent="1">
          <mxGeometry x="304" y="590" width="50" height="30" as="geometry" />
        </mxCell>
        <mxCell id="Ky6rxVkZPWlq-gp3w1kQ-65" value="a" style="text;html=1;align=center;verticalAlign=middle;resizable=0;points=[];autosize=1;strokeColor=none;fillColor=none;" vertex="1" parent="1">
          <mxGeometry x="94" y="590" width="30" height="30" as="geometry" />
        </mxCell>
        <mxCell id="Ky6rxVkZPWlq-gp3w1kQ-66" value="Uni_not" style="rounded=1;whiteSpace=wrap;html=1;" vertex="1" parent="1">
          <mxGeometry x="149" y="695" width="60" height="40" as="geometry" />
        </mxCell>
        <mxCell id="Ky6rxVkZPWlq-gp3w1kQ-67" value="" style="endArrow=none;html=1;rounded=0;" edge="1" parent="1">
          <mxGeometry width="50" height="50" relative="1" as="geometry">
            <mxPoint x="139.0000000000013" y="715" as="sourcePoint" />
            <mxPoint x="149" y="715" as="targetPoint" />
          </mxGeometry>
        </mxCell>
        <mxCell id="Ky6rxVkZPWlq-gp3w1kQ-68" value="" style="endArrow=none;html=1;rounded=0;exitX=1;exitY=0.5;exitDx=0;exitDy=0;" edge="1" parent="1" source="Ky6rxVkZPWlq-gp3w1kQ-66">
          <mxGeometry width="50" height="50" relative="1" as="geometry">
            <mxPoint x="229" y="715" as="sourcePoint" />
            <mxPoint x="249" y="715" as="targetPoint" />
          </mxGeometry>
        </mxCell>
        <mxCell id="Ky6rxVkZPWlq-gp3w1kQ-69" value="b" style="text;html=1;align=center;verticalAlign=middle;resizable=0;points=[];autosize=1;strokeColor=none;fillColor=none;" vertex="1" parent="1">
          <mxGeometry x="94" y="700" width="30" height="30" as="geometry" />
        </mxCell>
        <mxCell id="Ky6rxVkZPWlq-gp3w1kQ-70" value="out" style="text;html=1;align=center;verticalAlign=middle;resizable=0;points=[];autosize=1;strokeColor=none;fillColor=none;" vertex="1" parent="1">
          <mxGeometry x="389" y="635" width="40" height="30" as="geometry" />
        </mxCell>
        <mxCell id="Ky6rxVkZPWlq-gp3w1kQ-71" value="Uni_not" style="rounded=1;whiteSpace=wrap;html=1;" vertex="1" parent="1">
          <mxGeometry x="149" y="585" width="60" height="40" as="geometry" />
        </mxCell>
        <mxCell id="Ky6rxVkZPWlq-gp3w1kQ-72" value="Uni_and" style="rounded=1;whiteSpace=wrap;html=1;" vertex="1" parent="1">
          <mxGeometry x="249" y="680" width="60" height="40" as="geometry" />
        </mxCell>
        <mxCell id="Ky6rxVkZPWlq-gp3w1kQ-73" value="Uni_or" style="rounded=1;whiteSpace=wrap;html=1;" vertex="1" parent="1">
          <mxGeometry x="334" y="640" width="60" height="40" as="geometry" />
        </mxCell>
        <mxCell id="Ky6rxVkZPWlq-gp3w1kQ-74" value="" style="endArrow=none;html=1;rounded=0;" edge="1" parent="1">
          <mxGeometry width="50" height="50" relative="1" as="geometry">
            <mxPoint x="394" y="660" as="sourcePoint" />
            <mxPoint x="409" y="660" as="targetPoint" />
          </mxGeometry>
        </mxCell>
        <mxCell id="Ky6rxVkZPWlq-gp3w1kQ-75" value="" style="endArrow=none;html=1;rounded=0;exitX=1;exitY=0.5;exitDx=0;exitDy=0;" edge="1" parent="1" source="Ky6rxVkZPWlq-gp3w1kQ-91">
          <mxGeometry width="50" height="50" relative="1" as="geometry">
            <mxPoint x="134.0000000000013" y="605" as="sourcePoint" />
            <mxPoint x="149" y="605" as="targetPoint" />
          </mxGeometry>
        </mxCell>
        <mxCell id="Ky6rxVkZPWlq-gp3w1kQ-76" value="" style="endArrow=none;html=1;rounded=0;" edge="1" parent="1">
          <mxGeometry width="50" height="50" relative="1" as="geometry">
            <mxPoint x="119" y="620" as="sourcePoint" />
            <mxPoint x="119" y="620" as="targetPoint" />
          </mxGeometry>
        </mxCell>
        <mxCell id="Ky6rxVkZPWlq-gp3w1kQ-77" value="Uni_xor" style="text;html=1;align=center;verticalAlign=middle;resizable=0;points=[];autosize=1;strokeColor=none;fillColor=none;" vertex="1" parent="1">
          <mxGeometry x="404" y="685" width="60" height="30" as="geometry" />
        </mxCell>
        <mxCell id="Ky6rxVkZPWlq-gp3w1kQ-78" value="" style="endArrow=none;html=1;rounded=0;" edge="1" parent="1" source="Ky6rxVkZPWlq-gp3w1kQ-91">
          <mxGeometry width="50" height="50" relative="1" as="geometry">
            <mxPoint x="119" y="605" as="sourcePoint" />
            <mxPoint x="129" y="605" as="targetPoint" />
          </mxGeometry>
        </mxCell>
        <mxCell id="Ky6rxVkZPWlq-gp3w1kQ-79" value="" style="endArrow=none;html=1;rounded=0;exitX=1.001;exitY=0.838;exitDx=0;exitDy=0;exitPerimeter=0;entryX=0;entryY=0.5;entryDx=0;entryDy=0;" edge="1" parent="1">
          <mxGeometry width="50" height="50" relative="1" as="geometry">
            <mxPoint x="119.03000000000003" y="715" as="sourcePoint" />
            <mxPoint x="139.99999999999972" y="715" as="targetPoint" />
          </mxGeometry>
        </mxCell>
        <mxCell id="Ky6rxVkZPWlq-gp3w1kQ-80" value="" style="endArrow=none;html=1;rounded=0;" edge="1" parent="1">
          <mxGeometry width="50" height="50" relative="1" as="geometry">
            <mxPoint x="319" y="615" as="sourcePoint" />
            <mxPoint x="309" y="615" as="targetPoint" />
          </mxGeometry>
        </mxCell>
        <mxCell id="Ky6rxVkZPWlq-gp3w1kQ-81" value="" style="endArrow=none;html=1;rounded=0;" edge="1" parent="1">
          <mxGeometry width="50" height="50" relative="1" as="geometry">
            <mxPoint x="319" y="700" as="sourcePoint" />
            <mxPoint x="309" y="700" as="targetPoint" />
          </mxGeometry>
        </mxCell>
        <mxCell id="Ky6rxVkZPWlq-gp3w1kQ-82" value="" style="endArrow=none;html=1;rounded=0;" edge="1" parent="1">
          <mxGeometry width="50" height="50" relative="1" as="geometry">
            <mxPoint x="334" y="650" as="sourcePoint" />
            <mxPoint x="319" y="650" as="targetPoint" />
          </mxGeometry>
        </mxCell>
        <mxCell id="Ky6rxVkZPWlq-gp3w1kQ-83" value="" style="endArrow=none;html=1;rounded=0;" edge="1" parent="1">
          <mxGeometry width="50" height="50" relative="1" as="geometry">
            <mxPoint x="334" y="670" as="sourcePoint" />
            <mxPoint x="319" y="670" as="targetPoint" />
          </mxGeometry>
        </mxCell>
        <mxCell id="Ky6rxVkZPWlq-gp3w1kQ-84" value="" style="endArrow=none;html=1;rounded=0;" edge="1" parent="1">
          <mxGeometry width="50" height="50" relative="1" as="geometry">
            <mxPoint x="319" y="700" as="sourcePoint" />
            <mxPoint x="319" y="670" as="targetPoint" />
          </mxGeometry>
        </mxCell>
        <mxCell id="Ky6rxVkZPWlq-gp3w1kQ-85" value="" style="endArrow=none;html=1;rounded=0;entryX=0.5;entryY=0;entryDx=0;entryDy=0;" edge="1" parent="1" target="Ky6rxVkZPWlq-gp3w1kQ-91">
          <mxGeometry width="50" height="50" relative="1" as="geometry">
            <mxPoint x="129" y="690" as="sourcePoint" />
            <mxPoint x="129" y="610" as="targetPoint" />
          </mxGeometry>
        </mxCell>
        <mxCell id="Ky6rxVkZPWlq-gp3w1kQ-86" value="" style="endArrow=none;html=1;rounded=0;exitX=0;exitY=0.25;exitDx=0;exitDy=0;" edge="1" parent="1" source="Ky6rxVkZPWlq-gp3w1kQ-72">
          <mxGeometry width="50" height="50" relative="1" as="geometry">
            <mxPoint x="79" y="740" as="sourcePoint" />
            <mxPoint x="129" y="690" as="targetPoint" />
          </mxGeometry>
        </mxCell>
        <mxCell id="Ky6rxVkZPWlq-gp3w1kQ-87" value="" style="endArrow=none;html=1;rounded=0;exitX=0.5;exitY=0;exitDx=0;exitDy=0;" edge="1" parent="1" source="Ky6rxVkZPWlq-gp3w1kQ-92">
          <mxGeometry width="50" height="50" relative="1" as="geometry">
            <mxPoint x="139" y="710" as="sourcePoint" />
            <mxPoint x="139" y="630" as="targetPoint" />
          </mxGeometry>
        </mxCell>
        <mxCell id="Ky6rxVkZPWlq-gp3w1kQ-88" value="&lt;font color=&quot;#999999&quot;&gt;n_a&lt;/font&gt;" style="text;html=1;align=center;verticalAlign=middle;resizable=0;points=[];autosize=1;strokeColor=none;fillColor=none;" vertex="1" parent="1">
          <mxGeometry x="201.5" y="580" width="40" height="30" as="geometry" />
        </mxCell>
        <mxCell id="Ky6rxVkZPWlq-gp3w1kQ-89" value="&lt;font color=&quot;#999999&quot;&gt;n_b&lt;/font&gt;" style="text;html=1;align=center;verticalAlign=middle;resizable=0;points=[];autosize=1;strokeColor=none;fillColor=none;" vertex="1" parent="1">
          <mxGeometry x="201.5" y="709" width="40" height="30" as="geometry" />
        </mxCell>
        <mxCell id="Ky6rxVkZPWlq-gp3w1kQ-90" value="" style="endArrow=none;html=1;rounded=0;" edge="1" parent="1" target="Ky6rxVkZPWlq-gp3w1kQ-91">
          <mxGeometry width="50" height="50" relative="1" as="geometry">
            <mxPoint x="119" y="605" as="sourcePoint" />
            <mxPoint x="129" y="605" as="targetPoint" />
          </mxGeometry>
        </mxCell>
        <mxCell id="Ky6rxVkZPWlq-gp3w1kQ-91" value="" style="ellipse;whiteSpace=wrap;html=1;aspect=fixed;fillColor=#000000;" vertex="1" parent="1">
          <mxGeometry x="128" y="604" width="2" height="2" as="geometry" />
        </mxCell>
        <mxCell id="Ky6rxVkZPWlq-gp3w1kQ-92" value="" style="ellipse;whiteSpace=wrap;html=1;aspect=fixed;fillColor=#000000;" vertex="1" parent="1">
          <mxGeometry x="138" y="714" width="2" height="2" as="geometry" />
        </mxCell>
        <mxCell id="Ky6rxVkZPWlq-gp3w1kQ-93" value="out" style="text;html=1;align=center;verticalAlign=middle;resizable=0;points=[];autosize=1;strokeColor=none;fillColor=none;" vertex="1" parent="1">
          <mxGeometry x="307.5" y="766.5" width="40" height="30" as="geometry" />
        </mxCell>
        <mxCell id="Ky6rxVkZPWlq-gp3w1kQ-94" value="Uni_not" style="rounded=1;whiteSpace=wrap;html=1;" vertex="1" parent="1">
          <mxGeometry x="251.5" y="769.5" width="60" height="40" as="geometry" />
        </mxCell>
        <mxCell id="Ky6rxVkZPWlq-gp3w1kQ-95" value="Uni_xor" style="rounded=1;whiteSpace=wrap;html=1;" vertex="1" parent="1">
          <mxGeometry x="149" y="769.5" width="60" height="40" as="geometry" />
        </mxCell>
        <mxCell id="Ky6rxVkZPWlq-gp3w1kQ-96" value="" style="endArrow=none;html=1;rounded=0;entryX=0;entryY=0.5;entryDx=0;entryDy=0;" edge="1" parent="1" target="Ky6rxVkZPWlq-gp3w1kQ-94">
          <mxGeometry width="50" height="50" relative="1" as="geometry">
            <mxPoint x="209" y="789.5" as="sourcePoint" />
            <mxPoint x="224" y="789.5" as="targetPoint" />
          </mxGeometry>
        </mxCell>
        <mxCell id="Ky6rxVkZPWlq-gp3w1kQ-97" value="" style="endArrow=none;html=1;rounded=0;" edge="1" parent="1">
          <mxGeometry width="50" height="50" relative="1" as="geometry">
            <mxPoint x="311.5" y="789.5" as="sourcePoint" />
            <mxPoint x="336.5" y="789.5" as="targetPoint" />
          </mxGeometry>
        </mxCell>
        <mxCell id="Ky6rxVkZPWlq-gp3w1kQ-98" value="" style="endArrow=none;html=1;rounded=0;" edge="1" parent="1">
          <mxGeometry width="50" height="50" relative="1" as="geometry">
            <mxPoint x="119" y="779.5" as="sourcePoint" />
            <mxPoint x="149" y="779.5" as="targetPoint" />
          </mxGeometry>
        </mxCell>
        <mxCell id="Ky6rxVkZPWlq-gp3w1kQ-99" value="" style="endArrow=none;html=1;rounded=0;" edge="1" parent="1">
          <mxGeometry width="50" height="50" relative="1" as="geometry">
            <mxPoint x="119" y="799.5" as="sourcePoint" />
            <mxPoint x="149" y="799.5" as="targetPoint" />
          </mxGeometry>
        </mxCell>
        <mxCell id="Ky6rxVkZPWlq-gp3w1kQ-100" value="&lt;font color=&quot;#999999&quot;&gt;con1&lt;/font&gt;" style="text;html=1;align=center;verticalAlign=middle;resizable=0;points=[];autosize=1;strokeColor=none;fillColor=none;" vertex="1" parent="1">
          <mxGeometry x="204" y="763.5" width="50" height="30" as="geometry" />
        </mxCell>
        <mxCell id="Ky6rxVkZPWlq-gp3w1kQ-101" value="a" style="text;html=1;align=center;verticalAlign=middle;resizable=0;points=[];autosize=1;strokeColor=none;fillColor=none;" vertex="1" parent="1">
          <mxGeometry x="92" y="763.5" width="30" height="30" as="geometry" />
        </mxCell>
        <mxCell id="Ky6rxVkZPWlq-gp3w1kQ-102" value="b" style="text;html=1;align=center;verticalAlign=middle;resizable=0;points=[];autosize=1;strokeColor=none;fillColor=none;" vertex="1" parent="1">
          <mxGeometry x="92" y="783.5" width="30" height="30" as="geometry" />
        </mxCell>
        <mxCell id="Ky6rxVkZPWlq-gp3w1kQ-103" value="Uni_xnor" style="text;html=1;align=center;verticalAlign=middle;resizable=0;points=[];autosize=1;strokeColor=none;fillColor=none;" vertex="1" parent="1">
          <mxGeometry x="334" y="796.5" width="70" height="30" as="geometry" />
        </mxCell>
        <mxCell id="Ky6rxVkZPWlq-gp3w1kQ-105" value="&lt;font color=&quot;#999999&quot;&gt;con1&lt;/font&gt;" style="text;html=1;align=center;verticalAlign=middle;resizable=0;points=[];autosize=1;strokeColor=none;fillColor=none;" vertex="1" parent="1">
          <mxGeometry x="234" y="356" width="50" height="30" as="geometry" />
        </mxCell>
        <mxCell id="Ky6rxVkZPWlq-gp3w1kQ-106" value="&lt;font color=&quot;#999999&quot;&gt;n_b&lt;/font&gt;" style="text;html=1;align=center;verticalAlign=middle;resizable=0;points=[];autosize=1;strokeColor=none;fillColor=none;" vertex="1" parent="1">
          <mxGeometry x="234" y="265" width="40" height="30" as="geometry" />
        </mxCell>
        <mxCell id="Ky6rxVkZPWlq-gp3w1kQ-107" value="Uni_and" style="rounded=1;whiteSpace=wrap;html=1;" vertex="1" parent="1">
          <mxGeometry x="159" y="870" width="80" height="60" as="geometry" />
        </mxCell>
        <mxCell id="Ky6rxVkZPWlq-gp3w1kQ-108" value="Uni_and" style="rounded=1;whiteSpace=wrap;html=1;" vertex="1" parent="1">
          <mxGeometry x="159" y="940" width="80" height="60" as="geometry" />
        </mxCell>
        <mxCell id="Ky6rxVkZPWlq-gp3w1kQ-109" value="Uni_and" style="rounded=1;whiteSpace=wrap;html=1;" vertex="1" parent="1">
          <mxGeometry x="159" y="1010" width="80" height="60" as="geometry" />
        </mxCell>
        <mxCell id="Ky6rxVkZPWlq-gp3w1kQ-110" value="" style="endArrow=none;html=1;rounded=0;" edge="1" parent="1">
          <mxGeometry width="50" height="50" relative="1" as="geometry">
            <mxPoint x="119" y="890" as="sourcePoint" />
            <mxPoint x="159" y="890" as="targetPoint" />
          </mxGeometry>
        </mxCell>
        <mxCell id="Ky6rxVkZPWlq-gp3w1kQ-111" value="" style="endArrow=none;html=1;rounded=0;" edge="1" parent="1">
          <mxGeometry width="50" height="50" relative="1" as="geometry">
            <mxPoint x="119" y="910" as="sourcePoint" />
            <mxPoint x="159" y="910" as="targetPoint" />
          </mxGeometry>
        </mxCell>
        <mxCell id="Ky6rxVkZPWlq-gp3w1kQ-112" value="a" style="text;html=1;align=center;verticalAlign=middle;resizable=0;points=[];autosize=1;strokeColor=none;fillColor=none;" vertex="1" parent="1">
          <mxGeometry x="90" y="874" width="30" height="30" as="geometry" />
        </mxCell>
        <mxCell id="Ky6rxVkZPWlq-gp3w1kQ-113" value="b" style="text;html=1;align=center;verticalAlign=middle;resizable=0;points=[];autosize=1;strokeColor=none;fillColor=none;" vertex="1" parent="1">
          <mxGeometry x="90" y="896" width="30" height="30" as="geometry" />
        </mxCell>
        <mxCell id="Ky6rxVkZPWlq-gp3w1kQ-118" value="" style="endArrow=none;html=1;rounded=0;" edge="1" parent="1">
          <mxGeometry width="50" height="50" relative="1" as="geometry">
            <mxPoint x="129" y="960" as="sourcePoint" />
            <mxPoint x="159" y="960" as="targetPoint" />
          </mxGeometry>
        </mxCell>
        <mxCell id="Ky6rxVkZPWlq-gp3w1kQ-119" value="" style="endArrow=none;html=1;rounded=0;" edge="1" parent="1">
          <mxGeometry width="50" height="50" relative="1" as="geometry">
            <mxPoint x="119" y="980" as="sourcePoint" />
            <mxPoint x="159" y="980" as="targetPoint" />
          </mxGeometry>
        </mxCell>
        <mxCell id="Ky6rxVkZPWlq-gp3w1kQ-121" value="c" style="text;html=1;align=center;verticalAlign=middle;resizable=0;points=[];autosize=1;strokeColor=none;fillColor=none;" vertex="1" parent="1">
          <mxGeometry x="90" y="966" width="30" height="30" as="geometry" />
        </mxCell>
        <mxCell id="Ky6rxVkZPWlq-gp3w1kQ-122" value="" style="endArrow=none;html=1;rounded=0;" edge="1" parent="1">
          <mxGeometry width="50" height="50" relative="1" as="geometry">
            <mxPoint x="139" y="1030" as="sourcePoint" />
            <mxPoint x="159" y="1030" as="targetPoint" />
          </mxGeometry>
        </mxCell>
        <mxCell id="Ky6rxVkZPWlq-gp3w1kQ-123" value="" style="endArrow=none;html=1;rounded=0;" edge="1" parent="1">
          <mxGeometry width="50" height="50" relative="1" as="geometry">
            <mxPoint x="149" y="1050" as="sourcePoint" />
            <mxPoint x="159" y="1050" as="targetPoint" />
          </mxGeometry>
        </mxCell>
        <mxCell id="Ky6rxVkZPWlq-gp3w1kQ-126" value="" style="endArrow=none;html=1;rounded=0;" edge="1" parent="1">
          <mxGeometry width="50" height="50" relative="1" as="geometry">
            <mxPoint x="129" y="960" as="sourcePoint" />
            <mxPoint x="129" y="890" as="targetPoint" />
          </mxGeometry>
        </mxCell>
        <mxCell id="Ky6rxVkZPWlq-gp3w1kQ-127" value="" style="endArrow=none;html=1;rounded=0;" edge="1" parent="1">
          <mxGeometry width="50" height="50" relative="1" as="geometry">
            <mxPoint x="139" y="1030" as="sourcePoint" />
            <mxPoint x="139" y="910" as="targetPoint" />
          </mxGeometry>
        </mxCell>
        <mxCell id="Ky6rxVkZPWlq-gp3w1kQ-128" value="" style="endArrow=none;html=1;rounded=0;" edge="1" parent="1">
          <mxGeometry width="50" height="50" relative="1" as="geometry">
            <mxPoint x="149" y="1050" as="sourcePoint" />
            <mxPoint x="149" y="980" as="targetPoint" />
          </mxGeometry>
        </mxCell>
        <mxCell id="Ky6rxVkZPWlq-gp3w1kQ-130" value="" style="ellipse;whiteSpace=wrap;html=1;aspect=fixed;fillColor=#000000;" vertex="1" parent="1">
          <mxGeometry x="127" y="888" width="4" height="4" as="geometry" />
        </mxCell>
        <mxCell id="Ky6rxVkZPWlq-gp3w1kQ-132" value="" style="ellipse;whiteSpace=wrap;html=1;aspect=fixed;fillColor=#000000;" vertex="1" parent="1">
          <mxGeometry x="137" y="908" width="4" height="4" as="geometry" />
        </mxCell>
        <mxCell id="Ky6rxVkZPWlq-gp3w1kQ-133" value="" style="ellipse;whiteSpace=wrap;html=1;aspect=fixed;fillColor=#000000;" vertex="1" parent="1">
          <mxGeometry x="147" y="978" width="4" height="4" as="geometry" />
        </mxCell>
        <mxCell id="Ky6rxVkZPWlq-gp3w1kQ-134" value="" style="endArrow=none;html=1;rounded=0;" edge="1" parent="1">
          <mxGeometry width="50" height="50" relative="1" as="geometry">
            <mxPoint x="239" y="900" as="sourcePoint" />
            <mxPoint x="269" y="900" as="targetPoint" />
          </mxGeometry>
        </mxCell>
        <mxCell id="Ky6rxVkZPWlq-gp3w1kQ-135" value="" style="endArrow=none;html=1;rounded=0;exitX=1;exitY=0.5;exitDx=0;exitDy=0;" edge="1" parent="1" source="Ky6rxVkZPWlq-gp3w1kQ-108">
          <mxGeometry width="50" height="50" relative="1" as="geometry">
            <mxPoint x="239" y="980" as="sourcePoint" />
            <mxPoint x="269" y="970" as="targetPoint" />
          </mxGeometry>
        </mxCell>
        <mxCell id="Ky6rxVkZPWlq-gp3w1kQ-136" value="" style="endArrow=none;html=1;rounded=0;" edge="1" parent="1">
          <mxGeometry width="50" height="50" relative="1" as="geometry">
            <mxPoint x="239" y="1040" as="sourcePoint" />
            <mxPoint x="399" y="1040" as="targetPoint" />
          </mxGeometry>
        </mxCell>
        <mxCell id="Ky6rxVkZPWlq-gp3w1kQ-137" value="" style="endArrow=none;html=1;rounded=0;" edge="1" parent="1">
          <mxGeometry width="50" height="50" relative="1" as="geometry">
            <mxPoint x="269" y="930" as="sourcePoint" />
            <mxPoint x="269" y="900" as="targetPoint" />
          </mxGeometry>
        </mxCell>
        <mxCell id="Ky6rxVkZPWlq-gp3w1kQ-138" value="" style="endArrow=none;html=1;rounded=0;" edge="1" parent="1">
          <mxGeometry width="50" height="50" relative="1" as="geometry">
            <mxPoint x="269" y="970" as="sourcePoint" />
            <mxPoint x="269" y="940" as="targetPoint" />
          </mxGeometry>
        </mxCell>
        <mxCell id="Ky6rxVkZPWlq-gp3w1kQ-139" value="Uni_or" style="rounded=1;whiteSpace=wrap;html=1;" vertex="1" parent="1">
          <mxGeometry x="294" y="904" width="80" height="60" as="geometry" />
        </mxCell>
        <mxCell id="Ky6rxVkZPWlq-gp3w1kQ-142" value="" style="endArrow=none;html=1;rounded=0;" edge="1" parent="1">
          <mxGeometry width="50" height="50" relative="1" as="geometry">
            <mxPoint x="269" y="930" as="sourcePoint" />
            <mxPoint x="294" y="930" as="targetPoint" />
          </mxGeometry>
        </mxCell>
        <mxCell id="Ky6rxVkZPWlq-gp3w1kQ-144" value="" style="endArrow=none;html=1;rounded=0;" edge="1" parent="1">
          <mxGeometry width="50" height="50" relative="1" as="geometry">
            <mxPoint x="269" y="940" as="sourcePoint" />
            <mxPoint x="294" y="940" as="targetPoint" />
          </mxGeometry>
        </mxCell>
        <mxCell id="Ky6rxVkZPWlq-gp3w1kQ-145" value="" style="endArrow=none;html=1;rounded=0;" edge="1" parent="1">
          <mxGeometry width="50" height="50" relative="1" as="geometry">
            <mxPoint x="374" y="935" as="sourcePoint" />
            <mxPoint x="399" y="935" as="targetPoint" />
          </mxGeometry>
        </mxCell>
        <mxCell id="Ky6rxVkZPWlq-gp3w1kQ-146" value="" style="endArrow=none;html=1;rounded=0;" edge="1" parent="1">
          <mxGeometry width="50" height="50" relative="1" as="geometry">
            <mxPoint x="399" y="1030" as="sourcePoint" />
            <mxPoint x="399" y="935" as="targetPoint" />
          </mxGeometry>
        </mxCell>
        <mxCell id="Ky6rxVkZPWlq-gp3w1kQ-147" value="" style="endArrow=none;html=1;rounded=0;" edge="1" parent="1">
          <mxGeometry width="50" height="50" relative="1" as="geometry">
            <mxPoint x="399" y="1030" as="sourcePoint" />
            <mxPoint x="424" y="1030" as="targetPoint" />
          </mxGeometry>
        </mxCell>
        <mxCell id="Ky6rxVkZPWlq-gp3w1kQ-148" value="" style="endArrow=none;html=1;rounded=0;" edge="1" parent="1">
          <mxGeometry width="50" height="50" relative="1" as="geometry">
            <mxPoint x="399" y="1040" as="sourcePoint" />
            <mxPoint x="424" y="1040" as="targetPoint" />
          </mxGeometry>
        </mxCell>
        <mxCell id="Ky6rxVkZPWlq-gp3w1kQ-149" value="Uni_or" style="rounded=1;whiteSpace=wrap;html=1;" vertex="1" parent="1">
          <mxGeometry x="424" y="1003" width="80" height="60" as="geometry" />
        </mxCell>
        <mxCell id="Ky6rxVkZPWlq-gp3w1kQ-151" value="" style="endArrow=none;html=1;rounded=0;" edge="1" parent="1">
          <mxGeometry width="50" height="50" relative="1" as="geometry">
            <mxPoint x="504" y="1035" as="sourcePoint" />
            <mxPoint x="529" y="1035" as="targetPoint" />
          </mxGeometry>
        </mxCell>
        <mxCell id="Ky6rxVkZPWlq-gp3w1kQ-152" value="out" style="text;html=1;align=center;verticalAlign=middle;resizable=0;points=[];autosize=1;strokeColor=none;fillColor=none;" vertex="1" parent="1">
          <mxGeometry x="499" y="1008" width="40" height="30" as="geometry" />
        </mxCell>
        <mxCell id="Ky6rxVkZPWlq-gp3w1kQ-153" value="&lt;font color=&quot;#999999&quot;&gt;con1&lt;/font&gt;" style="text;html=1;align=center;verticalAlign=middle;resizable=0;points=[];autosize=1;strokeColor=none;fillColor=none;" vertex="1" parent="1">
          <mxGeometry x="234" y="874" width="50" height="30" as="geometry" />
        </mxCell>
        <mxCell id="Ky6rxVkZPWlq-gp3w1kQ-154" value="&lt;font color=&quot;#999999&quot;&gt;con2&lt;/font&gt;" style="text;html=1;align=center;verticalAlign=middle;resizable=0;points=[];autosize=1;strokeColor=none;fillColor=none;" vertex="1" parent="1">
          <mxGeometry x="234" y="966" width="50" height="30" as="geometry" />
        </mxCell>
        <mxCell id="Ky6rxVkZPWlq-gp3w1kQ-155" value="&lt;font color=&quot;#999999&quot;&gt;con3&lt;/font&gt;" style="text;html=1;align=center;verticalAlign=middle;resizable=0;points=[];autosize=1;strokeColor=none;fillColor=none;" vertex="1" parent="1">
          <mxGeometry x="234" y="1014" width="50" height="30" as="geometry" />
        </mxCell>
        <mxCell id="Ky6rxVkZPWlq-gp3w1kQ-156" value="&lt;font color=&quot;#999999&quot;&gt;con4&lt;/font&gt;" style="text;html=1;align=center;verticalAlign=middle;resizable=0;points=[];autosize=1;strokeColor=none;fillColor=none;" vertex="1" parent="1">
          <mxGeometry x="369" y="912" width="50" height="30" as="geometry" />
        </mxCell>
        <mxCell id="Ky6rxVkZPWlq-gp3w1kQ-158" value="Majority" style="text;html=1;align=center;verticalAlign=middle;resizable=0;points=[];autosize=1;strokeColor=none;fillColor=none;" vertex="1" parent="1">
          <mxGeometry x="519" y="1060" width="70" height="30" as="geometry" />
        </mxCell>
        <mxCell id="Ky6rxVkZPWlq-gp3w1kQ-159" value="Majority" style="rounded=1;whiteSpace=wrap;html=1;" vertex="1" parent="1">
          <mxGeometry x="794" y="221" width="80" height="60" as="geometry" />
        </mxCell>
        <mxCell id="Ky6rxVkZPWlq-gp3w1kQ-160" value="" style="endArrow=none;html=1;rounded=0;" edge="1" parent="1">
          <mxGeometry width="50" height="50" relative="1" as="geometry">
            <mxPoint x="765" y="231" as="sourcePoint" />
            <mxPoint x="794" y="231" as="targetPoint" />
          </mxGeometry>
        </mxCell>
        <mxCell id="Ky6rxVkZPWlq-gp3w1kQ-161" value="" style="endArrow=none;html=1;rounded=0;" edge="1" parent="1">
          <mxGeometry width="50" height="50" relative="1" as="geometry">
            <mxPoint x="775" y="251" as="sourcePoint" />
            <mxPoint x="794" y="251" as="targetPoint" />
          </mxGeometry>
        </mxCell>
        <mxCell id="Ky6rxVkZPWlq-gp3w1kQ-162" value="" style="endArrow=none;html=1;rounded=0;" edge="1" parent="1">
          <mxGeometry width="50" height="50" relative="1" as="geometry">
            <mxPoint x="785" y="271" as="sourcePoint" />
            <mxPoint x="794" y="271" as="targetPoint" />
          </mxGeometry>
        </mxCell>
        <mxCell id="Ky6rxVkZPWlq-gp3w1kQ-164" value="Uni_xor" style="rounded=1;whiteSpace=wrap;html=1;" vertex="1" parent="1">
          <mxGeometry x="794" y="100" width="80" height="60" as="geometry" />
        </mxCell>
        <mxCell id="Ky6rxVkZPWlq-gp3w1kQ-165" value="" style="endArrow=none;html=1;rounded=0;" edge="1" parent="1">
          <mxGeometry width="50" height="50" relative="1" as="geometry">
            <mxPoint x="754" y="120" as="sourcePoint" />
            <mxPoint x="794" y="120" as="targetPoint" />
          </mxGeometry>
        </mxCell>
        <mxCell id="Ky6rxVkZPWlq-gp3w1kQ-166" value="" style="endArrow=none;html=1;rounded=0;" edge="1" parent="1">
          <mxGeometry width="50" height="50" relative="1" as="geometry">
            <mxPoint x="754" y="140" as="sourcePoint" />
            <mxPoint x="794" y="140" as="targetPoint" />
          </mxGeometry>
        </mxCell>
        <mxCell id="Ky6rxVkZPWlq-gp3w1kQ-167" value="a" style="text;html=1;align=center;verticalAlign=middle;resizable=0;points=[];autosize=1;strokeColor=none;fillColor=none;" vertex="1" parent="1">
          <mxGeometry x="725" y="104" width="30" height="30" as="geometry" />
        </mxCell>
        <mxCell id="Ky6rxVkZPWlq-gp3w1kQ-168" value="b" style="text;html=1;align=center;verticalAlign=middle;resizable=0;points=[];autosize=1;strokeColor=none;fillColor=none;" vertex="1" parent="1">
          <mxGeometry x="725" y="126" width="30" height="30" as="geometry" />
        </mxCell>
        <mxCell id="Ky6rxVkZPWlq-gp3w1kQ-169" value="Uni_xor" style="rounded=1;whiteSpace=wrap;html=1;" vertex="1" parent="1">
          <mxGeometry x="915" y="151" width="80" height="60" as="geometry" />
        </mxCell>
        <mxCell id="Ky6rxVkZPWlq-gp3w1kQ-172" value="" style="endArrow=none;html=1;rounded=0;" edge="1" parent="1">
          <mxGeometry width="50" height="50" relative="1" as="geometry">
            <mxPoint x="875" y="131" as="sourcePoint" />
            <mxPoint x="895" y="131" as="targetPoint" />
          </mxGeometry>
        </mxCell>
        <mxCell id="Ky6rxVkZPWlq-gp3w1kQ-173" value="" style="endArrow=none;html=1;rounded=0;" edge="1" parent="1">
          <mxGeometry width="50" height="50" relative="1" as="geometry">
            <mxPoint x="895" y="171" as="sourcePoint" />
            <mxPoint x="895" y="131" as="targetPoint" />
          </mxGeometry>
        </mxCell>
        <mxCell id="Ky6rxVkZPWlq-gp3w1kQ-174" value="" style="endArrow=none;html=1;rounded=0;exitX=0.001;exitY=0.337;exitDx=0;exitDy=0;exitPerimeter=0;" edge="1" parent="1" source="Ky6rxVkZPWlq-gp3w1kQ-169">
          <mxGeometry width="50" height="50" relative="1" as="geometry">
            <mxPoint x="845" y="221" as="sourcePoint" />
            <mxPoint x="895" y="171" as="targetPoint" />
          </mxGeometry>
        </mxCell>
        <mxCell id="Ky6rxVkZPWlq-gp3w1kQ-175" value="" style="endArrow=none;html=1;rounded=0;" edge="1" parent="1">
          <mxGeometry width="50" height="50" relative="1" as="geometry">
            <mxPoint x="755" y="191" as="sourcePoint" />
            <mxPoint x="915" y="191" as="targetPoint" />
          </mxGeometry>
        </mxCell>
        <mxCell id="Ky6rxVkZPWlq-gp3w1kQ-176" value="cin" style="text;html=1;align=center;verticalAlign=middle;resizable=0;points=[];autosize=1;strokeColor=none;fillColor=none;" vertex="1" parent="1">
          <mxGeometry x="720" y="176" width="40" height="30" as="geometry" />
        </mxCell>
        <mxCell id="Ky6rxVkZPWlq-gp3w1kQ-177" value="" style="endArrow=none;html=1;rounded=0;" edge="1" parent="1">
          <mxGeometry width="50" height="50" relative="1" as="geometry">
            <mxPoint x="765" y="231" as="sourcePoint" />
            <mxPoint x="765" y="120" as="targetPoint" />
          </mxGeometry>
        </mxCell>
        <mxCell id="Ky6rxVkZPWlq-gp3w1kQ-178" value="" style="endArrow=none;html=1;rounded=0;" edge="1" parent="1">
          <mxGeometry width="50" height="50" relative="1" as="geometry">
            <mxPoint x="775" y="251" as="sourcePoint" />
            <mxPoint x="775" y="140" as="targetPoint" />
          </mxGeometry>
        </mxCell>
        <mxCell id="Ky6rxVkZPWlq-gp3w1kQ-179" value="" style="endArrow=none;html=1;rounded=0;" edge="1" parent="1">
          <mxGeometry width="50" height="50" relative="1" as="geometry">
            <mxPoint x="785" y="271" as="sourcePoint" />
            <mxPoint x="785" y="191" as="targetPoint" />
          </mxGeometry>
        </mxCell>
        <mxCell id="Ky6rxVkZPWlq-gp3w1kQ-180" value="" style="ellipse;whiteSpace=wrap;html=1;aspect=fixed;fillColor=#000000;" vertex="1" parent="1">
          <mxGeometry x="764" y="119" width="2" height="2" as="geometry" />
        </mxCell>
        <mxCell id="Ky6rxVkZPWlq-gp3w1kQ-181" value="" style="ellipse;whiteSpace=wrap;html=1;aspect=fixed;fillColor=#000000;" vertex="1" parent="1">
          <mxGeometry x="774" y="139" width="2" height="2" as="geometry" />
        </mxCell>
        <mxCell id="Ky6rxVkZPWlq-gp3w1kQ-182" value="" style="ellipse;whiteSpace=wrap;html=1;aspect=fixed;fillColor=#000000;" vertex="1" parent="1">
          <mxGeometry x="784" y="190" width="2" height="2" as="geometry" />
        </mxCell>
        <mxCell id="Ky6rxVkZPWlq-gp3w1kQ-183" value="" style="endArrow=none;html=1;rounded=0;" edge="1" parent="1">
          <mxGeometry width="50" height="50" relative="1" as="geometry">
            <mxPoint x="875" y="251" as="sourcePoint" />
            <mxPoint x="895" y="251" as="targetPoint" />
          </mxGeometry>
        </mxCell>
        <mxCell id="Ky6rxVkZPWlq-gp3w1kQ-184" value="" style="endArrow=none;html=1;rounded=0;" edge="1" parent="1">
          <mxGeometry width="50" height="50" relative="1" as="geometry">
            <mxPoint x="995" y="181" as="sourcePoint" />
            <mxPoint x="1015" y="181" as="targetPoint" />
          </mxGeometry>
        </mxCell>
        <mxCell id="Ky6rxVkZPWlq-gp3w1kQ-185" value="sum" style="text;html=1;align=center;verticalAlign=middle;resizable=0;points=[];autosize=1;strokeColor=none;fillColor=none;" vertex="1" parent="1">
          <mxGeometry x="985" y="156" width="50" height="30" as="geometry" />
        </mxCell>
        <mxCell id="Ky6rxVkZPWlq-gp3w1kQ-186" value="cout" style="text;html=1;align=center;verticalAlign=middle;resizable=0;points=[];autosize=1;strokeColor=none;fillColor=none;" vertex="1" parent="1">
          <mxGeometry x="865" y="227" width="50" height="30" as="geometry" />
        </mxCell>
        <mxCell id="Ky6rxVkZPWlq-gp3w1kQ-187" value="Full_Adder" style="text;html=1;align=center;verticalAlign=middle;resizable=0;points=[];autosize=1;strokeColor=none;fillColor=none;" vertex="1" parent="1">
          <mxGeometry x="985" y="242" width="80" height="30" as="geometry" />
        </mxCell>
        <mxCell id="Ky6rxVkZPWlq-gp3w1kQ-189" value="Full_Adder" style="rounded=1;whiteSpace=wrap;html=1;" vertex="1" parent="1">
          <mxGeometry x="1128" y="379" width="80" height="60" as="geometry" />
        </mxCell>
        <mxCell id="Ky6rxVkZPWlq-gp3w1kQ-190" value="Full_Adder" style="rounded=1;whiteSpace=wrap;html=1;" vertex="1" parent="1">
          <mxGeometry x="1008" y="379" width="80" height="60" as="geometry" />
        </mxCell>
        <mxCell id="Ky6rxVkZPWlq-gp3w1kQ-191" value="Full_Adder" style="rounded=1;whiteSpace=wrap;html=1;" vertex="1" parent="1">
          <mxGeometry x="888" y="379" width="80" height="60" as="geometry" />
        </mxCell>
        <mxCell id="Ky6rxVkZPWlq-gp3w1kQ-192" value="Full_Adder" style="rounded=1;whiteSpace=wrap;html=1;" vertex="1" parent="1">
          <mxGeometry x="768" y="379" width="80" height="60" as="geometry" />
        </mxCell>
        <mxCell id="Ky6rxVkZPWlq-gp3w1kQ-194" value="" style="startArrow=classic;html=1;rounded=0;endArrow=none" edge="1" parent="1">
          <mxGeometry width="50" height="50" relative="1" as="geometry">
            <mxPoint x="1188" y="379" as="sourcePoint" />
            <mxPoint x="1188" y="349" as="targetPoint" />
          </mxGeometry>
        </mxCell>
        <mxCell id="Ky6rxVkZPWlq-gp3w1kQ-195" value="" style="startArrow=classic;html=1;rounded=0;endArrow=none" edge="1" parent="1">
          <mxGeometry width="50" height="50" relative="1" as="geometry">
            <mxPoint x="1148" y="379" as="sourcePoint" />
            <mxPoint x="1148" y="349" as="targetPoint" />
          </mxGeometry>
        </mxCell>
        <mxCell id="Ky6rxVkZPWlq-gp3w1kQ-196" value="a[0]" style="text;html=1;align=center;verticalAlign=middle;resizable=0;points=[];autosize=1;strokeColor=none;fillColor=none;" vertex="1" parent="1">
          <mxGeometry x="1168" y="327" width="40" height="30" as="geometry" />
        </mxCell>
        <mxCell id="Ky6rxVkZPWlq-gp3w1kQ-197" value="b[0]" style="text;html=1;align=center;verticalAlign=middle;resizable=0;points=[];autosize=1;strokeColor=none;fillColor=none;" vertex="1" parent="1">
          <mxGeometry x="1128" y="327" width="40" height="30" as="geometry" />
        </mxCell>
        <mxCell id="Ky6rxVkZPWlq-gp3w1kQ-198" value="" style="startArrow=classic;html=1;rounded=0;endArrow=none" edge="1" parent="1">
          <mxGeometry width="50" height="50" relative="1" as="geometry">
            <mxPoint x="1068" y="379" as="sourcePoint" />
            <mxPoint x="1068" y="349" as="targetPoint" />
          </mxGeometry>
        </mxCell>
        <mxCell id="Ky6rxVkZPWlq-gp3w1kQ-199" value="" style="startArrow=classic;html=1;rounded=0;endArrow=none" edge="1" parent="1">
          <mxGeometry width="50" height="50" relative="1" as="geometry">
            <mxPoint x="1028" y="379" as="sourcePoint" />
            <mxPoint x="1028" y="349" as="targetPoint" />
          </mxGeometry>
        </mxCell>
        <mxCell id="Ky6rxVkZPWlq-gp3w1kQ-200" value="a[1]" style="text;html=1;align=center;verticalAlign=middle;resizable=0;points=[];autosize=1;strokeColor=none;fillColor=none;" vertex="1" parent="1">
          <mxGeometry x="1048" y="327" width="40" height="30" as="geometry" />
        </mxCell>
        <mxCell id="Ky6rxVkZPWlq-gp3w1kQ-201" value="b[1]" style="text;html=1;align=center;verticalAlign=middle;resizable=0;points=[];autosize=1;strokeColor=none;fillColor=none;" vertex="1" parent="1">
          <mxGeometry x="1008" y="327" width="40" height="30" as="geometry" />
        </mxCell>
        <mxCell id="Ky6rxVkZPWlq-gp3w1kQ-202" value="" style="startArrow=classic;html=1;rounded=0;endArrow=none" edge="1" parent="1">
          <mxGeometry width="50" height="50" relative="1" as="geometry">
            <mxPoint x="948" y="379" as="sourcePoint" />
            <mxPoint x="948" y="349" as="targetPoint" />
          </mxGeometry>
        </mxCell>
        <mxCell id="Ky6rxVkZPWlq-gp3w1kQ-203" value="" style="startArrow=classic;html=1;rounded=0;endArrow=none" edge="1" parent="1">
          <mxGeometry width="50" height="50" relative="1" as="geometry">
            <mxPoint x="908" y="379" as="sourcePoint" />
            <mxPoint x="908" y="349" as="targetPoint" />
          </mxGeometry>
        </mxCell>
        <mxCell id="Ky6rxVkZPWlq-gp3w1kQ-204" value="a[2]" style="text;html=1;align=center;verticalAlign=middle;resizable=0;points=[];autosize=1;strokeColor=none;fillColor=none;" vertex="1" parent="1">
          <mxGeometry x="928" y="327" width="40" height="30" as="geometry" />
        </mxCell>
        <mxCell id="Ky6rxVkZPWlq-gp3w1kQ-205" value="b[2]" style="text;html=1;align=center;verticalAlign=middle;resizable=0;points=[];autosize=1;strokeColor=none;fillColor=none;" vertex="1" parent="1">
          <mxGeometry x="888" y="327" width="40" height="30" as="geometry" />
        </mxCell>
        <mxCell id="Ky6rxVkZPWlq-gp3w1kQ-206" value="" style="startArrow=classic;html=1;rounded=0;endArrow=none" edge="1" parent="1">
          <mxGeometry width="50" height="50" relative="1" as="geometry">
            <mxPoint x="828" y="379" as="sourcePoint" />
            <mxPoint x="828" y="349" as="targetPoint" />
          </mxGeometry>
        </mxCell>
        <mxCell id="Ky6rxVkZPWlq-gp3w1kQ-207" value="" style="startArrow=classic;html=1;rounded=0;endArrow=none" edge="1" parent="1">
          <mxGeometry width="50" height="50" relative="1" as="geometry">
            <mxPoint x="788" y="379" as="sourcePoint" />
            <mxPoint x="788" y="349" as="targetPoint" />
          </mxGeometry>
        </mxCell>
        <mxCell id="Ky6rxVkZPWlq-gp3w1kQ-208" value="a[3]" style="text;html=1;align=center;verticalAlign=middle;resizable=0;points=[];autosize=1;strokeColor=none;fillColor=none;" vertex="1" parent="1">
          <mxGeometry x="808" y="327" width="40" height="30" as="geometry" />
        </mxCell>
        <mxCell id="Ky6rxVkZPWlq-gp3w1kQ-209" value="b[3]" style="text;html=1;align=center;verticalAlign=middle;resizable=0;points=[];autosize=1;strokeColor=none;fillColor=none;" vertex="1" parent="1">
          <mxGeometry x="768" y="327" width="40" height="30" as="geometry" />
        </mxCell>
        <mxCell id="Ky6rxVkZPWlq-gp3w1kQ-213" value="" style="endArrow=none;html=1;rounded=0;" edge="1" parent="1">
          <mxGeometry width="50" height="50" relative="1" as="geometry">
            <mxPoint x="1168" y="459" as="sourcePoint" />
            <mxPoint x="1168" y="439" as="targetPoint" />
          </mxGeometry>
        </mxCell>
        <mxCell id="Ky6rxVkZPWlq-gp3w1kQ-214" value="" style="endArrow=none;html=1;rounded=0;" edge="1" parent="1">
          <mxGeometry width="50" height="50" relative="1" as="geometry">
            <mxPoint x="1048" y="459" as="sourcePoint" />
            <mxPoint x="1048" y="439" as="targetPoint" />
          </mxGeometry>
        </mxCell>
        <mxCell id="Ky6rxVkZPWlq-gp3w1kQ-215" value="" style="endArrow=none;html=1;rounded=0;" edge="1" parent="1">
          <mxGeometry width="50" height="50" relative="1" as="geometry">
            <mxPoint x="928" y="459" as="sourcePoint" />
            <mxPoint x="928" y="439" as="targetPoint" />
          </mxGeometry>
        </mxCell>
        <mxCell id="Ky6rxVkZPWlq-gp3w1kQ-216" value="" style="endArrow=none;html=1;rounded=0;" edge="1" parent="1">
          <mxGeometry width="50" height="50" relative="1" as="geometry">
            <mxPoint x="807.53" y="459" as="sourcePoint" />
            <mxPoint x="807.53" y="439" as="targetPoint" />
          </mxGeometry>
        </mxCell>
        <mxCell id="Ky6rxVkZPWlq-gp3w1kQ-217" value="sum[0]" style="text;html=1;align=center;verticalAlign=middle;resizable=0;points=[];autosize=1;strokeColor=none;fillColor=none;" vertex="1" parent="1">
          <mxGeometry x="1138" y="456" width="60" height="30" as="geometry" />
        </mxCell>
        <mxCell id="Ky6rxVkZPWlq-gp3w1kQ-218" value="sum[1]" style="text;html=1;align=center;verticalAlign=middle;resizable=0;points=[];autosize=1;strokeColor=none;fillColor=none;" vertex="1" parent="1">
          <mxGeometry x="1018" y="456" width="60" height="30" as="geometry" />
        </mxCell>
        <mxCell id="Ky6rxVkZPWlq-gp3w1kQ-219" value="sum[2]" style="text;html=1;align=center;verticalAlign=middle;resizable=0;points=[];autosize=1;strokeColor=none;fillColor=none;" vertex="1" parent="1">
          <mxGeometry x="898" y="456" width="60" height="30" as="geometry" />
        </mxCell>
        <mxCell id="Ky6rxVkZPWlq-gp3w1kQ-220" value="sum[3]" style="text;html=1;align=center;verticalAlign=middle;resizable=0;points=[];autosize=1;strokeColor=none;fillColor=none;" vertex="1" parent="1">
          <mxGeometry x="778" y="456" width="60" height="30" as="geometry" />
        </mxCell>
        <mxCell id="Ky6rxVkZPWlq-gp3w1kQ-221" value="" style="endArrow=none;html=1;rounded=0;" edge="1" parent="1">
          <mxGeometry width="50" height="50" relative="1" as="geometry">
            <mxPoint x="748" y="409" as="sourcePoint" />
            <mxPoint x="768" y="409" as="targetPoint" />
          </mxGeometry>
        </mxCell>
        <mxCell id="Ky6rxVkZPWlq-gp3w1kQ-222" value="cout" style="text;html=1;align=center;verticalAlign=middle;resizable=0;points=[];autosize=1;strokeColor=none;fillColor=none;" vertex="1" parent="1">
          <mxGeometry x="725" y="387.5" width="50" height="30" as="geometry" />
        </mxCell>
        <mxCell id="Ky6rxVkZPWlq-gp3w1kQ-223" value="cout3" style="text;html=1;align=center;verticalAlign=middle;resizable=0;points=[];autosize=1;strokeColor=none;fillColor=none;labelBackgroundColor=default;fontColor=#999999;" vertex="1" parent="1">
          <mxGeometry x="844" y="385" width="50" height="30" as="geometry" />
        </mxCell>
        <mxCell id="Ky6rxVkZPWlq-gp3w1kQ-224" value="cout2" style="text;html=1;align=center;verticalAlign=middle;resizable=0;points=[];autosize=1;strokeColor=none;fillColor=none;fontColor=#999999;" vertex="1" parent="1">
          <mxGeometry x="964" y="384" width="50" height="30" as="geometry" />
        </mxCell>
        <mxCell id="Ky6rxVkZPWlq-gp3w1kQ-227" value="" style="endArrow=none;html=1;rounded=0;" edge="1" parent="1">
          <mxGeometry width="50" height="50" relative="1" as="geometry">
            <mxPoint x="1208" y="409" as="sourcePoint" />
            <mxPoint x="1228" y="409" as="targetPoint" />
          </mxGeometry>
        </mxCell>
        <mxCell id="Ky6rxVkZPWlq-gp3w1kQ-228" value="cin" style="text;html=1;align=center;verticalAlign=middle;resizable=0;points=[];autosize=1;strokeColor=none;fillColor=none;" vertex="1" parent="1">
          <mxGeometry x="1198" y="385" width="40" height="30" as="geometry" />
        </mxCell>
        <mxCell id="Ky6rxVkZPWlq-gp3w1kQ-229" value="" style="endArrow=classic;html=1;rounded=0;exitX=0;exitY=0.5;exitDx=0;exitDy=0;" edge="1" parent="1" source="Ky6rxVkZPWlq-gp3w1kQ-189">
          <mxGeometry width="50" height="50" relative="1" as="geometry">
            <mxPoint x="1118" y="459" as="sourcePoint" />
            <mxPoint x="1088" y="409" as="targetPoint" />
          </mxGeometry>
        </mxCell>
        <mxCell id="Ky6rxVkZPWlq-gp3w1kQ-230" value="" style="endArrow=classic;html=1;rounded=0;" edge="1" parent="1">
          <mxGeometry width="50" height="50" relative="1" as="geometry">
            <mxPoint x="1008" y="409" as="sourcePoint" />
            <mxPoint x="968" y="409" as="targetPoint" />
          </mxGeometry>
        </mxCell>
        <mxCell id="Ky6rxVkZPWlq-gp3w1kQ-231" value="" style="endArrow=classic;html=1;rounded=0;" edge="1" parent="1">
          <mxGeometry width="50" height="50" relative="1" as="geometry">
            <mxPoint x="888" y="409" as="sourcePoint" />
            <mxPoint x="848" y="409" as="targetPoint" />
          </mxGeometry>
        </mxCell>
        <mxCell id="Ky6rxVkZPWlq-gp3w1kQ-232" value="Ripple_Carry_Adder_4" style="text;html=1;align=center;verticalAlign=middle;resizable=0;points=[];autosize=1;strokeColor=none;fillColor=none;" vertex="1" parent="1">
          <mxGeometry x="1208" y="469" width="150" height="30" as="geometry" />
        </mxCell>
        <mxCell id="Ky6rxVkZPWlq-gp3w1kQ-233" value="Uni_not" style="rounded=1;whiteSpace=wrap;html=1;" vertex="1" parent="1">
          <mxGeometry x="1528" y="119" width="80" height="60" as="geometry" />
        </mxCell>
        <mxCell id="Ky6rxVkZPWlq-gp3w1kQ-235" value="" style="endArrow=none;html=1;rounded=0;" edge="1" parent="1">
          <mxGeometry width="50" height="50" relative="1" as="geometry">
            <mxPoint x="1510" y="148.87" as="sourcePoint" />
            <mxPoint x="1528" y="148.87" as="targetPoint" />
          </mxGeometry>
        </mxCell>
        <mxCell id="Ky6rxVkZPWlq-gp3w1kQ-236" value="Uni_not" style="rounded=1;whiteSpace=wrap;html=1;" vertex="1" parent="1">
          <mxGeometry x="1528" y="189" width="80" height="60" as="geometry" />
        </mxCell>
        <mxCell id="Ky6rxVkZPWlq-gp3w1kQ-237" value="" style="endArrow=none;html=1;rounded=0;" edge="1" parent="1">
          <mxGeometry width="50" height="50" relative="1" as="geometry">
            <mxPoint x="1510" y="219" as="sourcePoint" />
            <mxPoint x="1528" y="219" as="targetPoint" />
          </mxGeometry>
        </mxCell>
        <mxCell id="Ky6rxVkZPWlq-gp3w1kQ-239" value="Uni_not" style="rounded=1;whiteSpace=wrap;html=1;" vertex="1" parent="1">
          <mxGeometry x="1528" y="259.5" width="80" height="60" as="geometry" />
        </mxCell>
        <mxCell id="Ky6rxVkZPWlq-gp3w1kQ-240" value="" style="endArrow=none;html=1;rounded=0;" edge="1" parent="1">
          <mxGeometry width="50" height="50" relative="1" as="geometry">
            <mxPoint x="1510" y="289.37" as="sourcePoint" />
            <mxPoint x="1528" y="289.37" as="targetPoint" />
          </mxGeometry>
        </mxCell>
        <mxCell id="Ky6rxVkZPWlq-gp3w1kQ-241" value="Uni_not" style="rounded=1;whiteSpace=wrap;html=1;" vertex="1" parent="1">
          <mxGeometry x="1528" y="329" width="80" height="60" as="geometry" />
        </mxCell>
        <mxCell id="Ky6rxVkZPWlq-gp3w1kQ-242" value="" style="endArrow=none;html=1;rounded=0;" edge="1" parent="1">
          <mxGeometry width="50" height="50" relative="1" as="geometry">
            <mxPoint x="1510" y="358.87" as="sourcePoint" />
            <mxPoint x="1528" y="358.87" as="targetPoint" />
          </mxGeometry>
        </mxCell>
        <mxCell id="Ky6rxVkZPWlq-gp3w1kQ-243" value="" style="endArrow=none;html=1;rounded=0;" edge="1" parent="1">
          <mxGeometry width="50" height="50" relative="1" as="geometry">
            <mxPoint x="1608" y="149" as="sourcePoint" />
            <mxPoint x="1630" y="149" as="targetPoint" />
          </mxGeometry>
        </mxCell>
        <mxCell id="Ky6rxVkZPWlq-gp3w1kQ-244" value="" style="endArrow=none;html=1;rounded=0;" edge="1" parent="1">
          <mxGeometry width="50" height="50" relative="1" as="geometry">
            <mxPoint x="1608" y="218.77999999999997" as="sourcePoint" />
            <mxPoint x="1630" y="218.77999999999997" as="targetPoint" />
          </mxGeometry>
        </mxCell>
        <mxCell id="Ky6rxVkZPWlq-gp3w1kQ-245" value="" style="endArrow=none;html=1;rounded=0;" edge="1" parent="1">
          <mxGeometry width="50" height="50" relative="1" as="geometry">
            <mxPoint x="1608" y="289.39" as="sourcePoint" />
            <mxPoint x="1630" y="289.39" as="targetPoint" />
          </mxGeometry>
        </mxCell>
        <mxCell id="Ky6rxVkZPWlq-gp3w1kQ-246" value="" style="endArrow=none;html=1;rounded=0;" edge="1" parent="1">
          <mxGeometry width="50" height="50" relative="1" as="geometry">
            <mxPoint x="1608" y="358.89" as="sourcePoint" />
            <mxPoint x="1630" y="358.89" as="targetPoint" />
          </mxGeometry>
        </mxCell>
        <mxCell id="Ky6rxVkZPWlq-gp3w1kQ-247" value="in[0]" style="text;html=1;align=center;verticalAlign=middle;resizable=0;points=[];autosize=1;strokeColor=none;fillColor=none;" vertex="1" parent="1">
          <mxGeometry x="1470" y="133" width="50" height="30" as="geometry" />
        </mxCell>
        <mxCell id="Ky6rxVkZPWlq-gp3w1kQ-248" value="in[1]" style="text;html=1;align=center;verticalAlign=middle;resizable=0;points=[];autosize=1;strokeColor=none;fillColor=none;" vertex="1" parent="1">
          <mxGeometry x="1470" y="203" width="50" height="30" as="geometry" />
        </mxCell>
        <mxCell id="Ky6rxVkZPWlq-gp3w1kQ-249" value="in[2]" style="text;html=1;align=center;verticalAlign=middle;resizable=0;points=[];autosize=1;strokeColor=none;fillColor=none;" vertex="1" parent="1">
          <mxGeometry x="1470" y="273.5" width="50" height="30" as="geometry" />
        </mxCell>
        <mxCell id="Ky6rxVkZPWlq-gp3w1kQ-250" value="in[3]" style="text;html=1;align=center;verticalAlign=middle;resizable=0;points=[];autosize=1;strokeColor=none;fillColor=none;" vertex="1" parent="1">
          <mxGeometry x="1470" y="343" width="50" height="30" as="geometry" />
        </mxCell>
        <mxCell id="Ky6rxVkZPWlq-gp3w1kQ-255" value="n_in[0]" style="text;html=1;align=center;verticalAlign=middle;resizable=0;points=[];autosize=1;strokeColor=none;fillColor=none;" vertex="1" parent="1">
          <mxGeometry x="1620" y="133" width="60" height="30" as="geometry" />
        </mxCell>
        <mxCell id="Ky6rxVkZPWlq-gp3w1kQ-256" value="n_in[1]" style="text;html=1;align=center;verticalAlign=middle;resizable=0;points=[];autosize=1;strokeColor=none;fillColor=none;" vertex="1" parent="1">
          <mxGeometry x="1620" y="203" width="60" height="30" as="geometry" />
        </mxCell>
        <mxCell id="Ky6rxVkZPWlq-gp3w1kQ-257" value="n_in[2]" style="text;html=1;align=center;verticalAlign=middle;resizable=0;points=[];autosize=1;strokeColor=none;fillColor=none;" vertex="1" parent="1">
          <mxGeometry x="1620" y="273.5" width="60" height="30" as="geometry" />
        </mxCell>
        <mxCell id="Ky6rxVkZPWlq-gp3w1kQ-258" value="n_in[3]" style="text;html=1;align=center;verticalAlign=middle;resizable=0;points=[];autosize=1;strokeColor=none;fillColor=none;" vertex="1" parent="1">
          <mxGeometry x="1620" y="343" width="60" height="30" as="geometry" />
        </mxCell>
        <mxCell id="Ky6rxVkZPWlq-gp3w1kQ-259" value="Not_4" style="text;html=1;align=center;verticalAlign=middle;resizable=0;points=[];autosize=1;strokeColor=none;fillColor=none;" vertex="1" parent="1">
          <mxGeometry x="1688" y="373.5" width="60" height="30" as="geometry" />
        </mxCell>
        <mxCell id="Ky6rxVkZPWlq-gp3w1kQ-260" value="Uni_and" style="rounded=1;whiteSpace=wrap;html=1;" vertex="1" parent="1">
          <mxGeometry x="860" y="575" width="60" height="40" as="geometry" />
        </mxCell>
        <mxCell id="Ky6rxVkZPWlq-gp3w1kQ-261" value="Uni_and" style="rounded=1;whiteSpace=wrap;html=1;" vertex="1" parent="1">
          <mxGeometry x="860" y="635" width="60" height="40" as="geometry" />
        </mxCell>
        <mxCell id="Ky6rxVkZPWlq-gp3w1kQ-262" value="Uni_and" style="rounded=1;whiteSpace=wrap;html=1;" vertex="1" parent="1">
          <mxGeometry x="860" y="695" width="60" height="40" as="geometry" />
        </mxCell>
        <mxCell id="Ky6rxVkZPWlq-gp3w1kQ-263" value="Uni_and" style="rounded=1;whiteSpace=wrap;html=1;" vertex="1" parent="1">
          <mxGeometry x="860" y="754" width="60" height="40" as="geometry" />
        </mxCell>
        <mxCell id="Ky6rxVkZPWlq-gp3w1kQ-273" value="" style="endArrow=none;html=1;rounded=0;" edge="1" parent="1">
          <mxGeometry width="50" height="50" relative="1" as="geometry">
            <mxPoint x="800" y="585" as="sourcePoint" />
            <mxPoint x="860" y="585" as="targetPoint" />
          </mxGeometry>
        </mxCell>
        <mxCell id="Ky6rxVkZPWlq-gp3w1kQ-274" value="" style="endArrow=none;html=1;rounded=0;" edge="1" parent="1">
          <mxGeometry width="50" height="50" relative="1" as="geometry">
            <mxPoint x="820" y="605" as="sourcePoint" />
            <mxPoint x="860" y="605" as="targetPoint" />
          </mxGeometry>
        </mxCell>
        <mxCell id="Ky6rxVkZPWlq-gp3w1kQ-275" value="" style="endArrow=none;html=1;rounded=0;" edge="1" parent="1">
          <mxGeometry width="50" height="50" relative="1" as="geometry">
            <mxPoint x="800" y="645" as="sourcePoint" />
            <mxPoint x="860" y="645" as="targetPoint" />
          </mxGeometry>
        </mxCell>
        <mxCell id="Ky6rxVkZPWlq-gp3w1kQ-276" value="" style="endArrow=none;html=1;rounded=0;" edge="1" parent="1">
          <mxGeometry width="50" height="50" relative="1" as="geometry">
            <mxPoint x="820" y="665" as="sourcePoint" />
            <mxPoint x="860" y="665" as="targetPoint" />
          </mxGeometry>
        </mxCell>
        <mxCell id="Ky6rxVkZPWlq-gp3w1kQ-277" value="" style="endArrow=none;html=1;rounded=0;" edge="1" parent="1">
          <mxGeometry width="50" height="50" relative="1" as="geometry">
            <mxPoint x="800" y="705" as="sourcePoint" />
            <mxPoint x="860" y="705" as="targetPoint" />
          </mxGeometry>
        </mxCell>
        <mxCell id="Ky6rxVkZPWlq-gp3w1kQ-278" value="" style="endArrow=none;html=1;rounded=0;" edge="1" parent="1">
          <mxGeometry width="50" height="50" relative="1" as="geometry">
            <mxPoint x="820" y="725" as="sourcePoint" />
            <mxPoint x="860" y="725" as="targetPoint" />
          </mxGeometry>
        </mxCell>
        <mxCell id="Ky6rxVkZPWlq-gp3w1kQ-279" value="" style="endArrow=none;html=1;rounded=0;" edge="1" parent="1">
          <mxGeometry width="50" height="50" relative="1" as="geometry">
            <mxPoint x="800" y="765" as="sourcePoint" />
            <mxPoint x="860" y="765" as="targetPoint" />
          </mxGeometry>
        </mxCell>
        <mxCell id="Ky6rxVkZPWlq-gp3w1kQ-280" value="" style="endArrow=none;html=1;rounded=0;" edge="1" parent="1">
          <mxGeometry width="50" height="50" relative="1" as="geometry">
            <mxPoint x="820" y="785" as="sourcePoint" />
            <mxPoint x="860" y="785" as="targetPoint" />
          </mxGeometry>
        </mxCell>
        <mxCell id="Ky6rxVkZPWlq-gp3w1kQ-281" value="Uni_not" style="rounded=1;whiteSpace=wrap;html=1;rotation=0;" vertex="1" parent="1">
          <mxGeometry x="745" y="794" width="60" height="40" as="geometry" />
        </mxCell>
        <mxCell id="Ky6rxVkZPWlq-gp3w1kQ-282" value="" style="endArrow=none;html=1;rounded=0;" edge="1" parent="1">
          <mxGeometry width="50" height="50" relative="1" as="geometry">
            <mxPoint x="695" y="814" as="sourcePoint" />
            <mxPoint x="745" y="814" as="targetPoint" />
          </mxGeometry>
        </mxCell>
        <mxCell id="Ky6rxVkZPWlq-gp3w1kQ-283" value="sel" style="text;html=1;align=center;verticalAlign=middle;resizable=0;points=[];autosize=1;strokeColor=none;fillColor=none;" vertex="1" parent="1">
          <mxGeometry x="660" y="798" width="40" height="30" as="geometry" />
        </mxCell>
        <mxCell id="Ky6rxVkZPWlq-gp3w1kQ-284" value="" style="endArrow=none;html=1;rounded=0;exitX=1;exitY=0.5;exitDx=0;exitDy=0;" edge="1" parent="1" source="Ky6rxVkZPWlq-gp3w1kQ-281">
          <mxGeometry width="50" height="50" relative="1" as="geometry">
            <mxPoint x="805" y="814" as="sourcePoint" />
            <mxPoint x="820" y="814" as="targetPoint" />
          </mxGeometry>
        </mxCell>
        <mxCell id="Ky6rxVkZPWlq-gp3w1kQ-285" value="Uni_and" style="rounded=1;whiteSpace=wrap;html=1;" vertex="1" parent="1">
          <mxGeometry x="860" y="575" width="60" height="40" as="geometry" />
        </mxCell>
        <mxCell id="Ky6rxVkZPWlq-gp3w1kQ-286" value="Uni_and" style="rounded=1;whiteSpace=wrap;html=1;" vertex="1" parent="1">
          <mxGeometry x="860" y="635" width="60" height="40" as="geometry" />
        </mxCell>
        <mxCell id="Ky6rxVkZPWlq-gp3w1kQ-287" value="Uni_and" style="rounded=1;whiteSpace=wrap;html=1;" vertex="1" parent="1">
          <mxGeometry x="860" y="695" width="60" height="40" as="geometry" />
        </mxCell>
        <mxCell id="Ky6rxVkZPWlq-gp3w1kQ-288" value="Uni_and" style="rounded=1;whiteSpace=wrap;html=1;" vertex="1" parent="1">
          <mxGeometry x="860" y="754" width="60" height="40" as="geometry" />
        </mxCell>
        <mxCell id="Ky6rxVkZPWlq-gp3w1kQ-289" value="" style="endArrow=none;html=1;rounded=0;" edge="1" parent="1">
          <mxGeometry width="50" height="50" relative="1" as="geometry">
            <mxPoint x="800" y="585" as="sourcePoint" />
            <mxPoint x="860" y="585" as="targetPoint" />
          </mxGeometry>
        </mxCell>
        <mxCell id="Ky6rxVkZPWlq-gp3w1kQ-290" value="" style="endArrow=none;html=1;rounded=0;" edge="1" parent="1">
          <mxGeometry width="50" height="50" relative="1" as="geometry">
            <mxPoint x="820" y="605" as="sourcePoint" />
            <mxPoint x="860" y="605" as="targetPoint" />
          </mxGeometry>
        </mxCell>
        <mxCell id="Ky6rxVkZPWlq-gp3w1kQ-291" value="" style="endArrow=none;html=1;rounded=0;" edge="1" parent="1">
          <mxGeometry width="50" height="50" relative="1" as="geometry">
            <mxPoint x="800" y="645" as="sourcePoint" />
            <mxPoint x="860" y="645" as="targetPoint" />
          </mxGeometry>
        </mxCell>
        <mxCell id="Ky6rxVkZPWlq-gp3w1kQ-292" value="" style="endArrow=none;html=1;rounded=0;" edge="1" parent="1">
          <mxGeometry width="50" height="50" relative="1" as="geometry">
            <mxPoint x="820" y="665" as="sourcePoint" />
            <mxPoint x="860" y="665" as="targetPoint" />
          </mxGeometry>
        </mxCell>
        <mxCell id="Ky6rxVkZPWlq-gp3w1kQ-293" value="" style="endArrow=none;html=1;rounded=0;" edge="1" parent="1">
          <mxGeometry width="50" height="50" relative="1" as="geometry">
            <mxPoint x="800" y="705" as="sourcePoint" />
            <mxPoint x="860" y="705" as="targetPoint" />
          </mxGeometry>
        </mxCell>
        <mxCell id="Ky6rxVkZPWlq-gp3w1kQ-294" value="" style="endArrow=none;html=1;rounded=0;" edge="1" parent="1">
          <mxGeometry width="50" height="50" relative="1" as="geometry">
            <mxPoint x="820" y="725" as="sourcePoint" />
            <mxPoint x="860" y="725" as="targetPoint" />
          </mxGeometry>
        </mxCell>
        <mxCell id="Ky6rxVkZPWlq-gp3w1kQ-295" value="" style="endArrow=none;html=1;rounded=0;" edge="1" parent="1">
          <mxGeometry width="50" height="50" relative="1" as="geometry">
            <mxPoint x="800" y="765" as="sourcePoint" />
            <mxPoint x="860" y="765" as="targetPoint" />
          </mxGeometry>
        </mxCell>
        <mxCell id="Ky6rxVkZPWlq-gp3w1kQ-296" value="" style="endArrow=none;html=1;rounded=0;" edge="1" parent="1">
          <mxGeometry width="50" height="50" relative="1" as="geometry">
            <mxPoint x="820" y="785" as="sourcePoint" />
            <mxPoint x="860" y="785" as="targetPoint" />
          </mxGeometry>
        </mxCell>
        <mxCell id="Ky6rxVkZPWlq-gp3w1kQ-297" value="Uni_and" style="rounded=1;whiteSpace=wrap;html=1;" vertex="1" parent="1">
          <mxGeometry x="860" y="875" width="60" height="40" as="geometry" />
        </mxCell>
        <mxCell id="Ky6rxVkZPWlq-gp3w1kQ-298" value="Uni_and" style="rounded=1;whiteSpace=wrap;html=1;" vertex="1" parent="1">
          <mxGeometry x="860" y="935" width="60" height="40" as="geometry" />
        </mxCell>
        <mxCell id="Ky6rxVkZPWlq-gp3w1kQ-299" value="Uni_and" style="rounded=1;whiteSpace=wrap;html=1;" vertex="1" parent="1">
          <mxGeometry x="860" y="995" width="60" height="40" as="geometry" />
        </mxCell>
        <mxCell id="Ky6rxVkZPWlq-gp3w1kQ-300" value="Uni_and" style="rounded=1;whiteSpace=wrap;html=1;" vertex="1" parent="1">
          <mxGeometry x="860" y="1054" width="60" height="40" as="geometry" />
        </mxCell>
        <mxCell id="Ky6rxVkZPWlq-gp3w1kQ-301" value="" style="endArrow=none;html=1;rounded=0;" edge="1" parent="1">
          <mxGeometry width="50" height="50" relative="1" as="geometry">
            <mxPoint x="800" y="885" as="sourcePoint" />
            <mxPoint x="860" y="885" as="targetPoint" />
          </mxGeometry>
        </mxCell>
        <mxCell id="Ky6rxVkZPWlq-gp3w1kQ-302" value="" style="endArrow=none;html=1;rounded=0;" edge="1" parent="1">
          <mxGeometry width="50" height="50" relative="1" as="geometry">
            <mxPoint x="820" y="905" as="sourcePoint" />
            <mxPoint x="860" y="905" as="targetPoint" />
          </mxGeometry>
        </mxCell>
        <mxCell id="Ky6rxVkZPWlq-gp3w1kQ-303" value="" style="endArrow=none;html=1;rounded=0;" edge="1" parent="1">
          <mxGeometry width="50" height="50" relative="1" as="geometry">
            <mxPoint x="800" y="945" as="sourcePoint" />
            <mxPoint x="860" y="945" as="targetPoint" />
          </mxGeometry>
        </mxCell>
        <mxCell id="Ky6rxVkZPWlq-gp3w1kQ-304" value="" style="endArrow=none;html=1;rounded=0;" edge="1" parent="1">
          <mxGeometry width="50" height="50" relative="1" as="geometry">
            <mxPoint x="820" y="965" as="sourcePoint" />
            <mxPoint x="860" y="965" as="targetPoint" />
          </mxGeometry>
        </mxCell>
        <mxCell id="Ky6rxVkZPWlq-gp3w1kQ-305" value="" style="endArrow=none;html=1;rounded=0;" edge="1" parent="1">
          <mxGeometry width="50" height="50" relative="1" as="geometry">
            <mxPoint x="800" y="1005" as="sourcePoint" />
            <mxPoint x="860" y="1005" as="targetPoint" />
          </mxGeometry>
        </mxCell>
        <mxCell id="Ky6rxVkZPWlq-gp3w1kQ-306" value="" style="endArrow=none;html=1;rounded=0;" edge="1" parent="1">
          <mxGeometry width="50" height="50" relative="1" as="geometry">
            <mxPoint x="820" y="1025" as="sourcePoint" />
            <mxPoint x="860" y="1025" as="targetPoint" />
          </mxGeometry>
        </mxCell>
        <mxCell id="Ky6rxVkZPWlq-gp3w1kQ-307" value="" style="endArrow=none;html=1;rounded=0;" edge="1" parent="1">
          <mxGeometry width="50" height="50" relative="1" as="geometry">
            <mxPoint x="800" y="1065" as="sourcePoint" />
            <mxPoint x="860" y="1065" as="targetPoint" />
          </mxGeometry>
        </mxCell>
        <mxCell id="Ky6rxVkZPWlq-gp3w1kQ-308" value="" style="endArrow=none;html=1;rounded=0;" edge="1" parent="1">
          <mxGeometry width="50" height="50" relative="1" as="geometry">
            <mxPoint x="820" y="1085" as="sourcePoint" />
            <mxPoint x="860" y="1085" as="targetPoint" />
          </mxGeometry>
        </mxCell>
        <mxCell id="Ky6rxVkZPWlq-gp3w1kQ-310" value="" style="endArrow=none;html=1;rounded=0;" edge="1" parent="1">
          <mxGeometry width="50" height="50" relative="1" as="geometry">
            <mxPoint x="720" y="855" as="sourcePoint" />
            <mxPoint x="720" y="815" as="targetPoint" />
          </mxGeometry>
        </mxCell>
        <mxCell id="Ky6rxVkZPWlq-gp3w1kQ-311" value="" style="endArrow=none;html=1;rounded=0;" edge="1" parent="1">
          <mxGeometry width="50" height="50" relative="1" as="geometry">
            <mxPoint x="720" y="855" as="sourcePoint" />
            <mxPoint x="820" y="855" as="targetPoint" />
          </mxGeometry>
        </mxCell>
        <mxCell id="Ky6rxVkZPWlq-gp3w1kQ-312" value="" style="endArrow=none;html=1;rounded=0;" edge="1" parent="1">
          <mxGeometry width="50" height="50" relative="1" as="geometry">
            <mxPoint x="820" y="1085" as="sourcePoint" />
            <mxPoint x="820" y="855" as="targetPoint" />
          </mxGeometry>
        </mxCell>
        <mxCell id="Ky6rxVkZPWlq-gp3w1kQ-313" value="" style="endArrow=none;html=1;rounded=0;" edge="1" parent="1">
          <mxGeometry width="50" height="50" relative="1" as="geometry">
            <mxPoint x="820" y="814" as="sourcePoint" />
            <mxPoint x="820" y="605" as="targetPoint" />
          </mxGeometry>
        </mxCell>
        <mxCell id="Ky6rxVkZPWlq-gp3w1kQ-314" value="" style="ellipse;whiteSpace=wrap;html=1;aspect=fixed;fillColor=#000000;" vertex="1" parent="1">
          <mxGeometry x="127" y="888" width="4" height="4" as="geometry" />
        </mxCell>
        <mxCell id="Ky6rxVkZPWlq-gp3w1kQ-315" value="" style="ellipse;whiteSpace=wrap;html=1;aspect=fixed;fillColor=#000000;" vertex="1" parent="1">
          <mxGeometry x="718" y="812" width="4" height="4" as="geometry" />
        </mxCell>
        <mxCell id="Ky6rxVkZPWlq-gp3w1kQ-316" value="" style="ellipse;whiteSpace=wrap;html=1;aspect=fixed;fillColor=#000000;" vertex="1" parent="1">
          <mxGeometry x="818" y="903" width="4" height="4" as="geometry" />
        </mxCell>
        <mxCell id="Ky6rxVkZPWlq-gp3w1kQ-317" value="" style="ellipse;whiteSpace=wrap;html=1;aspect=fixed;fillColor=#000000;" vertex="1" parent="1">
          <mxGeometry x="818" y="963" width="4" height="4" as="geometry" />
        </mxCell>
        <mxCell id="Ky6rxVkZPWlq-gp3w1kQ-318" value="" style="ellipse;whiteSpace=wrap;html=1;aspect=fixed;fillColor=#000000;" vertex="1" parent="1">
          <mxGeometry x="818" y="1023" width="4" height="4" as="geometry" />
        </mxCell>
        <mxCell id="Ky6rxVkZPWlq-gp3w1kQ-319" value="" style="ellipse;whiteSpace=wrap;html=1;aspect=fixed;fillColor=#000000;" vertex="1" parent="1">
          <mxGeometry x="818" y="783.5" width="4" height="4" as="geometry" />
        </mxCell>
        <mxCell id="Ky6rxVkZPWlq-gp3w1kQ-322" value="" style="ellipse;whiteSpace=wrap;html=1;aspect=fixed;fillColor=#000000;" vertex="1" parent="1">
          <mxGeometry x="818" y="663" width="4" height="4" as="geometry" />
        </mxCell>
        <mxCell id="Ky6rxVkZPWlq-gp3w1kQ-323" value="" style="ellipse;whiteSpace=wrap;html=1;aspect=fixed;fillColor=#000000;" vertex="1" parent="1">
          <mxGeometry x="818" y="723" width="4" height="4" as="geometry" />
        </mxCell>
        <mxCell id="Ky6rxVkZPWlq-gp3w1kQ-325" value="" style="endArrow=none;html=1;rounded=0;" edge="1" parent="1">
          <mxGeometry width="50" height="50" relative="1" as="geometry">
            <mxPoint x="920" y="595" as="sourcePoint" />
            <mxPoint x="1010" y="595" as="targetPoint" />
          </mxGeometry>
        </mxCell>
        <mxCell id="Ky6rxVkZPWlq-gp3w1kQ-326" value="" style="endArrow=none;html=1;rounded=0;" edge="1" parent="1">
          <mxGeometry width="50" height="50" relative="1" as="geometry">
            <mxPoint x="920" y="895" as="sourcePoint" />
            <mxPoint x="1000" y="895" as="targetPoint" />
          </mxGeometry>
        </mxCell>
        <mxCell id="Ky6rxVkZPWlq-gp3w1kQ-327" value="" style="endArrow=none;html=1;rounded=0;" edge="1" parent="1">
          <mxGeometry width="50" height="50" relative="1" as="geometry">
            <mxPoint x="1000" y="895" as="sourcePoint" />
            <mxPoint x="1000" y="615" as="targetPoint" />
          </mxGeometry>
        </mxCell>
        <mxCell id="Ky6rxVkZPWlq-gp3w1kQ-328" value="" style="endArrow=none;html=1;rounded=0;" edge="1" parent="1">
          <mxGeometry width="50" height="50" relative="1" as="geometry">
            <mxPoint x="1000" y="615" as="sourcePoint" />
            <mxPoint x="1010" y="615" as="targetPoint" />
          </mxGeometry>
        </mxCell>
        <mxCell id="Ky6rxVkZPWlq-gp3w1kQ-329" value="" style="endArrow=none;html=1;rounded=0;" edge="1" parent="1">
          <mxGeometry width="50" height="50" relative="1" as="geometry">
            <mxPoint x="920" y="655" as="sourcePoint" />
            <mxPoint x="1010" y="655" as="targetPoint" />
          </mxGeometry>
        </mxCell>
        <mxCell id="Ky6rxVkZPWlq-gp3w1kQ-330" value="" style="endArrow=none;html=1;rounded=0;" edge="1" parent="1">
          <mxGeometry width="50" height="50" relative="1" as="geometry">
            <mxPoint x="920" y="955" as="sourcePoint" />
            <mxPoint x="980" y="955" as="targetPoint" />
          </mxGeometry>
        </mxCell>
        <mxCell id="Ky6rxVkZPWlq-gp3w1kQ-331" value="" style="endArrow=none;html=1;rounded=0;" edge="1" parent="1">
          <mxGeometry width="50" height="50" relative="1" as="geometry">
            <mxPoint x="980" y="955" as="sourcePoint" />
            <mxPoint x="980" y="675" as="targetPoint" />
          </mxGeometry>
        </mxCell>
        <mxCell id="Ky6rxVkZPWlq-gp3w1kQ-332" value="" style="endArrow=none;html=1;rounded=0;" edge="1" parent="1">
          <mxGeometry width="50" height="50" relative="1" as="geometry">
            <mxPoint x="980" y="675" as="sourcePoint" />
            <mxPoint x="1010" y="675" as="targetPoint" />
          </mxGeometry>
        </mxCell>
        <mxCell id="Ky6rxVkZPWlq-gp3w1kQ-333" value="" style="endArrow=none;html=1;rounded=0;" edge="1" parent="1">
          <mxGeometry width="50" height="50" relative="1" as="geometry">
            <mxPoint x="920" y="715" as="sourcePoint" />
            <mxPoint x="1010" y="715" as="targetPoint" />
          </mxGeometry>
        </mxCell>
        <mxCell id="Ky6rxVkZPWlq-gp3w1kQ-334" value="" style="endArrow=none;html=1;rounded=0;" edge="1" parent="1">
          <mxGeometry width="50" height="50" relative="1" as="geometry">
            <mxPoint x="920" y="1015" as="sourcePoint" />
            <mxPoint x="960" y="1015" as="targetPoint" />
          </mxGeometry>
        </mxCell>
        <mxCell id="Ky6rxVkZPWlq-gp3w1kQ-335" value="" style="endArrow=none;html=1;rounded=0;" edge="1" parent="1">
          <mxGeometry width="50" height="50" relative="1" as="geometry">
            <mxPoint x="960" y="1015" as="sourcePoint" />
            <mxPoint x="960" y="735" as="targetPoint" />
          </mxGeometry>
        </mxCell>
        <mxCell id="Ky6rxVkZPWlq-gp3w1kQ-336" value="" style="endArrow=none;html=1;rounded=0;" edge="1" parent="1">
          <mxGeometry width="50" height="50" relative="1" as="geometry">
            <mxPoint x="960" y="735" as="sourcePoint" />
            <mxPoint x="1010" y="735" as="targetPoint" />
          </mxGeometry>
        </mxCell>
        <mxCell id="Ky6rxVkZPWlq-gp3w1kQ-337" value="" style="endArrow=none;html=1;rounded=0;" edge="1" parent="1">
          <mxGeometry width="50" height="50" relative="1" as="geometry">
            <mxPoint x="920" y="1075" as="sourcePoint" />
            <mxPoint x="940" y="1075" as="targetPoint" />
          </mxGeometry>
        </mxCell>
        <mxCell id="Ky6rxVkZPWlq-gp3w1kQ-338" value="" style="endArrow=none;html=1;rounded=0;" edge="1" parent="1">
          <mxGeometry width="50" height="50" relative="1" as="geometry">
            <mxPoint x="940" y="1075" as="sourcePoint" />
            <mxPoint x="940" y="795" as="targetPoint" />
          </mxGeometry>
        </mxCell>
        <mxCell id="Ky6rxVkZPWlq-gp3w1kQ-339" value="" style="endArrow=none;html=1;rounded=0;" edge="1" parent="1">
          <mxGeometry width="50" height="50" relative="1" as="geometry">
            <mxPoint x="940" y="795" as="sourcePoint" />
            <mxPoint x="1010" y="795" as="targetPoint" />
          </mxGeometry>
        </mxCell>
        <mxCell id="Ky6rxVkZPWlq-gp3w1kQ-340" value="" style="endArrow=none;html=1;rounded=0;" edge="1" parent="1">
          <mxGeometry width="50" height="50" relative="1" as="geometry">
            <mxPoint x="920" y="775" as="sourcePoint" />
            <mxPoint x="1010" y="775" as="targetPoint" />
          </mxGeometry>
        </mxCell>
        <mxCell id="Ky6rxVkZPWlq-gp3w1kQ-341" value="Uni_or" style="rounded=1;whiteSpace=wrap;html=1;rotation=0;" vertex="1" parent="1">
          <mxGeometry x="1010" y="765.5" width="60" height="40" as="geometry" />
        </mxCell>
        <mxCell id="Ky6rxVkZPWlq-gp3w1kQ-342" value="Uni_or" style="rounded=1;whiteSpace=wrap;html=1;rotation=0;" vertex="1" parent="1">
          <mxGeometry x="1010" y="705" width="60" height="40" as="geometry" />
        </mxCell>
        <mxCell id="Ky6rxVkZPWlq-gp3w1kQ-343" value="Uni_or" style="rounded=1;whiteSpace=wrap;html=1;rotation=0;" vertex="1" parent="1">
          <mxGeometry x="1010" y="645" width="60" height="40" as="geometry" />
        </mxCell>
        <mxCell id="Ky6rxVkZPWlq-gp3w1kQ-344" value="Uni_or" style="rounded=1;whiteSpace=wrap;html=1;rotation=0;" vertex="1" parent="1">
          <mxGeometry x="1010" y="585" width="60" height="40" as="geometry" />
        </mxCell>
        <mxCell id="Ky6rxVkZPWlq-gp3w1kQ-345" value="" style="endArrow=none;html=1;rounded=0;" edge="1" parent="1">
          <mxGeometry width="50" height="50" relative="1" as="geometry">
            <mxPoint x="1070" y="605" as="sourcePoint" />
            <mxPoint x="1100" y="605" as="targetPoint" />
          </mxGeometry>
        </mxCell>
        <mxCell id="Ky6rxVkZPWlq-gp3w1kQ-346" value="" style="endArrow=none;html=1;rounded=0;" edge="1" parent="1">
          <mxGeometry width="50" height="50" relative="1" as="geometry">
            <mxPoint x="1070" y="665" as="sourcePoint" />
            <mxPoint x="1100" y="665" as="targetPoint" />
          </mxGeometry>
        </mxCell>
        <mxCell id="Ky6rxVkZPWlq-gp3w1kQ-347" value="" style="endArrow=none;html=1;rounded=0;" edge="1" parent="1">
          <mxGeometry width="50" height="50" relative="1" as="geometry">
            <mxPoint x="1070" y="725" as="sourcePoint" />
            <mxPoint x="1100" y="725" as="targetPoint" />
          </mxGeometry>
        </mxCell>
        <mxCell id="Ky6rxVkZPWlq-gp3w1kQ-348" value="" style="endArrow=none;html=1;rounded=0;" edge="1" parent="1">
          <mxGeometry width="50" height="50" relative="1" as="geometry">
            <mxPoint x="1070" y="785" as="sourcePoint" />
            <mxPoint x="1100" y="785" as="targetPoint" />
          </mxGeometry>
        </mxCell>
        <mxCell id="Ky6rxVkZPWlq-gp3w1kQ-349" value="a[0]" style="text;html=1;align=center;verticalAlign=middle;resizable=0;points=[];autosize=1;strokeColor=none;fillColor=none;" vertex="1" parent="1">
          <mxGeometry x="765" y="570" width="40" height="30" as="geometry" />
        </mxCell>
        <mxCell id="Ky6rxVkZPWlq-gp3w1kQ-350" value="a[1]" style="text;html=1;align=center;verticalAlign=middle;resizable=0;points=[];autosize=1;strokeColor=none;fillColor=none;" vertex="1" parent="1">
          <mxGeometry x="765" y="630" width="40" height="30" as="geometry" />
        </mxCell>
        <mxCell id="Ky6rxVkZPWlq-gp3w1kQ-351" value="a[2]" style="text;html=1;align=center;verticalAlign=middle;resizable=0;points=[];autosize=1;strokeColor=none;fillColor=none;" vertex="1" parent="1">
          <mxGeometry x="765" y="689" width="40" height="30" as="geometry" />
        </mxCell>
        <mxCell id="Ky6rxVkZPWlq-gp3w1kQ-352" value="a[3]" style="text;html=1;align=center;verticalAlign=middle;resizable=0;points=[];autosize=1;strokeColor=none;fillColor=none;" vertex="1" parent="1">
          <mxGeometry x="765" y="749.5" width="40" height="30" as="geometry" />
        </mxCell>
        <mxCell id="Ky6rxVkZPWlq-gp3w1kQ-353" value="b[0]" style="text;html=1;align=center;verticalAlign=middle;resizable=0;points=[];autosize=1;strokeColor=none;fillColor=none;" vertex="1" parent="1">
          <mxGeometry x="765" y="869" width="40" height="30" as="geometry" />
        </mxCell>
        <mxCell id="Ky6rxVkZPWlq-gp3w1kQ-354" value="b[1]" style="text;html=1;align=center;verticalAlign=middle;resizable=0;points=[];autosize=1;strokeColor=none;fillColor=none;" vertex="1" parent="1">
          <mxGeometry x="765" y="930" width="40" height="30" as="geometry" />
        </mxCell>
        <mxCell id="Ky6rxVkZPWlq-gp3w1kQ-355" value="b[2]" style="text;html=1;align=center;verticalAlign=middle;resizable=0;points=[];autosize=1;strokeColor=none;fillColor=none;" vertex="1" parent="1">
          <mxGeometry x="765" y="990" width="40" height="30" as="geometry" />
        </mxCell>
        <mxCell id="Ky6rxVkZPWlq-gp3w1kQ-356" value="b[3]" style="text;html=1;align=center;verticalAlign=middle;resizable=0;points=[];autosize=1;strokeColor=none;fillColor=none;" vertex="1" parent="1">
          <mxGeometry x="765" y="1049.5" width="40" height="30" as="geometry" />
        </mxCell>
        <mxCell id="Ky6rxVkZPWlq-gp3w1kQ-357" value="out[0]" style="text;html=1;align=center;verticalAlign=middle;resizable=0;points=[];autosize=1;strokeColor=none;fillColor=none;" vertex="1" parent="1">
          <mxGeometry x="1095" y="588.5" width="50" height="30" as="geometry" />
        </mxCell>
        <mxCell id="Ky6rxVkZPWlq-gp3w1kQ-358" value="out[1]" style="text;html=1;align=center;verticalAlign=middle;resizable=0;points=[];autosize=1;strokeColor=none;fillColor=none;" vertex="1" parent="1">
          <mxGeometry x="1095" y="648.5" width="50" height="30" as="geometry" />
        </mxCell>
        <mxCell id="Ky6rxVkZPWlq-gp3w1kQ-359" value="out[2]" style="text;html=1;align=center;verticalAlign=middle;resizable=0;points=[];autosize=1;strokeColor=none;fillColor=none;" vertex="1" parent="1">
          <mxGeometry x="1095" y="708.5" width="50" height="30" as="geometry" />
        </mxCell>
        <mxCell id="Ky6rxVkZPWlq-gp3w1kQ-360" value="out[3]" style="text;html=1;align=center;verticalAlign=middle;resizable=0;points=[];autosize=1;strokeColor=none;fillColor=none;" vertex="1" parent="1">
          <mxGeometry x="1095" y="769" width="50" height="30" as="geometry" />
        </mxCell>
        <mxCell id="Ky6rxVkZPWlq-gp3w1kQ-361" value="&lt;font color=&quot;#999999&quot;&gt;con1&lt;/font&gt;" style="text;html=1;align=center;verticalAlign=middle;resizable=0;points=[];autosize=1;strokeColor=none;fillColor=none;" vertex="1" parent="1">
          <mxGeometry x="915" y="570" width="50" height="30" as="geometry" />
        </mxCell>
        <mxCell id="Ky6rxVkZPWlq-gp3w1kQ-363" value="&lt;font color=&quot;#999999&quot;&gt;con2&lt;/font&gt;" style="text;html=1;align=center;verticalAlign=middle;resizable=0;points=[];autosize=1;strokeColor=none;fillColor=none;" vertex="1" parent="1">
          <mxGeometry x="915" y="630" width="50" height="30" as="geometry" />
        </mxCell>
        <mxCell id="Ky6rxVkZPWlq-gp3w1kQ-365" value="&lt;font color=&quot;#999999&quot;&gt;con3&lt;/font&gt;" style="text;html=1;align=center;verticalAlign=middle;resizable=0;points=[];autosize=1;strokeColor=none;fillColor=none;" vertex="1" parent="1">
          <mxGeometry x="915" y="690" width="50" height="30" as="geometry" />
        </mxCell>
        <mxCell id="Ky6rxVkZPWlq-gp3w1kQ-366" value="&lt;font color=&quot;#999999&quot;&gt;con4&lt;/font&gt;" style="text;html=1;align=center;verticalAlign=middle;resizable=0;points=[];autosize=1;strokeColor=none;fillColor=none;" vertex="1" parent="1">
          <mxGeometry x="915" y="749.5" width="50" height="30" as="geometry" />
        </mxCell>
        <mxCell id="Ky6rxVkZPWlq-gp3w1kQ-367" value="&lt;font color=&quot;#999999&quot;&gt;con5&lt;/font&gt;" style="text;html=1;align=center;verticalAlign=middle;resizable=0;points=[];autosize=1;strokeColor=none;fillColor=none;" vertex="1" parent="1">
          <mxGeometry x="908" y="890" width="50" height="30" as="geometry" />
        </mxCell>
        <mxCell id="Ky6rxVkZPWlq-gp3w1kQ-368" value="&lt;font color=&quot;#999999&quot;&gt;con6&lt;/font&gt;" style="text;html=1;align=center;verticalAlign=middle;resizable=0;points=[];autosize=1;strokeColor=none;fillColor=none;" vertex="1" parent="1">
          <mxGeometry x="908" y="950" width="50" height="30" as="geometry" />
        </mxCell>
        <mxCell id="Ky6rxVkZPWlq-gp3w1kQ-369" value="&lt;font color=&quot;#999999&quot;&gt;con7&lt;/font&gt;" style="text;html=1;align=center;verticalAlign=middle;resizable=0;points=[];autosize=1;strokeColor=none;fillColor=none;" vertex="1" parent="1">
          <mxGeometry x="908" y="1010" width="50" height="30" as="geometry" />
        </mxCell>
        <mxCell id="Ky6rxVkZPWlq-gp3w1kQ-370" value="&lt;font color=&quot;#999999&quot;&gt;con8&lt;/font&gt;" style="text;html=1;align=center;verticalAlign=middle;resizable=0;points=[];autosize=1;strokeColor=none;fillColor=none;" vertex="1" parent="1">
          <mxGeometry x="909" y="1071" width="50" height="30" as="geometry" />
        </mxCell>
        <mxCell id="Ky6rxVkZPWlq-gp3w1kQ-371" value="Mux_2x1_4bit" style="text;html=1;align=center;verticalAlign=middle;resizable=0;points=[];autosize=1;strokeColor=none;fillColor=none;" vertex="1" parent="1">
          <mxGeometry x="1078" y="1054" width="100" height="30" as="geometry" />
        </mxCell>
        <mxCell id="Ky6rxVkZPWlq-gp3w1kQ-440" value="Mux_2x1_4bit" style="rounded=1;whiteSpace=wrap;html=1;rotation=0;" vertex="1" parent="1">
          <mxGeometry x="1315" y="612" width="80" height="60" as="geometry" />
        </mxCell>
        <mxCell id="Ky6rxVkZPWlq-gp3w1kQ-441" value="" style="endArrow=classic;html=1;rounded=0;" edge="1" parent="1">
          <mxGeometry width="50" height="50" relative="1" as="geometry">
            <mxPoint x="1285" y="631.6" as="sourcePoint" />
            <mxPoint x="1315" y="631.6" as="targetPoint" />
          </mxGeometry>
        </mxCell>
        <mxCell id="Ky6rxVkZPWlq-gp3w1kQ-442" value="" style="endArrow=classic;html=1;rounded=0;" edge="1" parent="1">
          <mxGeometry width="50" height="50" relative="1" as="geometry">
            <mxPoint x="1285" y="652" as="sourcePoint" />
            <mxPoint x="1315" y="652" as="targetPoint" />
          </mxGeometry>
        </mxCell>
        <mxCell id="Ky6rxVkZPWlq-gp3w1kQ-443" value="Mux_2x1_4bit" style="rounded=1;whiteSpace=wrap;html=1;rotation=0;" vertex="1" parent="1">
          <mxGeometry x="1315" y="702" width="80" height="60" as="geometry" />
        </mxCell>
        <mxCell id="Ky6rxVkZPWlq-gp3w1kQ-444" value="" style="endArrow=classic;html=1;rounded=0;" edge="1" parent="1">
          <mxGeometry width="50" height="50" relative="1" as="geometry">
            <mxPoint x="1285" y="721.6" as="sourcePoint" />
            <mxPoint x="1315" y="721.6" as="targetPoint" />
          </mxGeometry>
        </mxCell>
        <mxCell id="Ky6rxVkZPWlq-gp3w1kQ-445" value="" style="endArrow=classic;html=1;rounded=0;" edge="1" parent="1">
          <mxGeometry width="50" height="50" relative="1" as="geometry">
            <mxPoint x="1285" y="742" as="sourcePoint" />
            <mxPoint x="1315" y="742" as="targetPoint" />
          </mxGeometry>
        </mxCell>
        <mxCell id="Ky6rxVkZPWlq-gp3w1kQ-446" value="Mux_2x1_4bit" style="rounded=1;whiteSpace=wrap;html=1;rotation=0;" vertex="1" parent="1">
          <mxGeometry x="1315" y="792" width="80" height="60" as="geometry" />
        </mxCell>
        <mxCell id="Ky6rxVkZPWlq-gp3w1kQ-447" value="" style="endArrow=classic;html=1;rounded=0;" edge="1" parent="1">
          <mxGeometry width="50" height="50" relative="1" as="geometry">
            <mxPoint x="1285" y="809.1" as="sourcePoint" />
            <mxPoint x="1315" y="809.1" as="targetPoint" />
          </mxGeometry>
        </mxCell>
        <mxCell id="Ky6rxVkZPWlq-gp3w1kQ-448" value="" style="endArrow=classic;html=1;rounded=0;" edge="1" parent="1">
          <mxGeometry width="50" height="50" relative="1" as="geometry">
            <mxPoint x="1285" y="829.5" as="sourcePoint" />
            <mxPoint x="1315" y="829.5" as="targetPoint" />
          </mxGeometry>
        </mxCell>
        <mxCell id="Ky6rxVkZPWlq-gp3w1kQ-449" value="Mux_2x1_4bit" style="rounded=1;whiteSpace=wrap;html=1;rotation=0;" vertex="1" parent="1">
          <mxGeometry x="1315" y="882" width="80" height="60" as="geometry" />
        </mxCell>
        <mxCell id="Ky6rxVkZPWlq-gp3w1kQ-450" value="" style="endArrow=classic;html=1;rounded=0;" edge="1" parent="1">
          <mxGeometry width="50" height="50" relative="1" as="geometry">
            <mxPoint x="1285" y="901.6" as="sourcePoint" />
            <mxPoint x="1315" y="901.6" as="targetPoint" />
          </mxGeometry>
        </mxCell>
        <mxCell id="Ky6rxVkZPWlq-gp3w1kQ-451" value="" style="endArrow=classic;html=1;rounded=0;" edge="1" parent="1">
          <mxGeometry width="50" height="50" relative="1" as="geometry">
            <mxPoint x="1285" y="922" as="sourcePoint" />
            <mxPoint x="1315" y="922" as="targetPoint" />
          </mxGeometry>
        </mxCell>
        <mxCell id="Ky6rxVkZPWlq-gp3w1kQ-452" value="Mux_2x1_4bit" style="rounded=1;whiteSpace=wrap;html=1;rotation=0;" vertex="1" parent="1">
          <mxGeometry x="1495" y="692" width="80" height="60" as="geometry" />
        </mxCell>
        <mxCell id="Ky6rxVkZPWlq-gp3w1kQ-453" value="" style="endArrow=classic;html=1;rounded=0;" edge="1" parent="1">
          <mxGeometry width="50" height="50" relative="1" as="geometry">
            <mxPoint x="1465" y="712" as="sourcePoint" />
            <mxPoint x="1495" y="712" as="targetPoint" />
          </mxGeometry>
        </mxCell>
        <mxCell id="Ky6rxVkZPWlq-gp3w1kQ-454" value="" style="endArrow=classic;html=1;rounded=0;" edge="1" parent="1">
          <mxGeometry width="50" height="50" relative="1" as="geometry">
            <mxPoint x="1465" y="732" as="sourcePoint" />
            <mxPoint x="1495" y="732" as="targetPoint" />
          </mxGeometry>
        </mxCell>
        <mxCell id="Ky6rxVkZPWlq-gp3w1kQ-455" value="Mux_2x1_4bit" style="rounded=1;whiteSpace=wrap;html=1;rotation=0;" vertex="1" parent="1">
          <mxGeometry x="1495" y="802" width="80" height="60" as="geometry" />
        </mxCell>
        <mxCell id="Ky6rxVkZPWlq-gp3w1kQ-456" value="" style="endArrow=classic;html=1;rounded=0;" edge="1" parent="1">
          <mxGeometry width="50" height="50" relative="1" as="geometry">
            <mxPoint x="1465" y="822" as="sourcePoint" />
            <mxPoint x="1495" y="822" as="targetPoint" />
          </mxGeometry>
        </mxCell>
        <mxCell id="Ky6rxVkZPWlq-gp3w1kQ-457" value="" style="endArrow=classic;html=1;rounded=0;" edge="1" parent="1">
          <mxGeometry width="50" height="50" relative="1" as="geometry">
            <mxPoint x="1465" y="842" as="sourcePoint" />
            <mxPoint x="1495" y="842" as="targetPoint" />
          </mxGeometry>
        </mxCell>
        <mxCell id="Ky6rxVkZPWlq-gp3w1kQ-458" value="Mux_2x1_4bit" style="rounded=1;whiteSpace=wrap;html=1;rotation=0;" vertex="1" parent="1">
          <mxGeometry x="1675" y="751.5" width="80" height="60" as="geometry" />
        </mxCell>
        <mxCell id="Ky6rxVkZPWlq-gp3w1kQ-459" value="" style="endArrow=classic;html=1;rounded=0;" edge="1" parent="1">
          <mxGeometry width="50" height="50" relative="1" as="geometry">
            <mxPoint x="1645" y="771.1" as="sourcePoint" />
            <mxPoint x="1675" y="771.1" as="targetPoint" />
          </mxGeometry>
        </mxCell>
        <mxCell id="Ky6rxVkZPWlq-gp3w1kQ-460" value="" style="endArrow=classic;html=1;rounded=0;" edge="1" parent="1">
          <mxGeometry width="50" height="50" relative="1" as="geometry">
            <mxPoint x="1645" y="791.5" as="sourcePoint" />
            <mxPoint x="1675" y="791.5" as="targetPoint" />
          </mxGeometry>
        </mxCell>
        <mxCell id="Ky6rxVkZPWlq-gp3w1kQ-461" value="" style="endArrow=none;html=1;rounded=0;" edge="1" parent="1">
          <mxGeometry width="50" height="50" relative="1" as="geometry">
            <mxPoint x="1395" y="912" as="sourcePoint" />
            <mxPoint x="1465" y="912" as="targetPoint" />
          </mxGeometry>
        </mxCell>
        <mxCell id="Ky6rxVkZPWlq-gp3w1kQ-463" value="" style="endArrow=none;html=1;rounded=0;" edge="1" parent="1">
          <mxGeometry width="50" height="50" relative="1" as="geometry">
            <mxPoint x="1395" y="822" as="sourcePoint" />
            <mxPoint x="1465" y="822" as="targetPoint" />
          </mxGeometry>
        </mxCell>
        <mxCell id="Ky6rxVkZPWlq-gp3w1kQ-464" value="" style="endArrow=none;html=1;rounded=0;" edge="1" parent="1">
          <mxGeometry width="50" height="50" relative="1" as="geometry">
            <mxPoint x="1395" y="732" as="sourcePoint" />
            <mxPoint x="1465" y="732" as="targetPoint" />
          </mxGeometry>
        </mxCell>
        <mxCell id="Ky6rxVkZPWlq-gp3w1kQ-465" value="" style="endArrow=none;html=1;rounded=0;" edge="1" parent="1">
          <mxGeometry width="50" height="50" relative="1" as="geometry">
            <mxPoint x="1395" y="642" as="sourcePoint" />
            <mxPoint x="1465" y="642" as="targetPoint" />
          </mxGeometry>
        </mxCell>
        <mxCell id="Ky6rxVkZPWlq-gp3w1kQ-466" value="" style="endArrow=none;html=1;rounded=0;" edge="1" parent="1">
          <mxGeometry width="50" height="50" relative="1" as="geometry">
            <mxPoint x="1465" y="912" as="sourcePoint" />
            <mxPoint x="1465" y="842" as="targetPoint" />
          </mxGeometry>
        </mxCell>
        <mxCell id="Ky6rxVkZPWlq-gp3w1kQ-467" value="" style="endArrow=none;html=1;rounded=0;" edge="1" parent="1">
          <mxGeometry width="50" height="50" relative="1" as="geometry">
            <mxPoint x="1465" y="712" as="sourcePoint" />
            <mxPoint x="1465" y="642" as="targetPoint" />
          </mxGeometry>
        </mxCell>
        <mxCell id="Ky6rxVkZPWlq-gp3w1kQ-468" value="" style="endArrow=none;html=1;rounded=0;" edge="1" parent="1">
          <mxGeometry width="50" height="50" relative="1" as="geometry">
            <mxPoint x="1575" y="722" as="sourcePoint" />
            <mxPoint x="1645" y="722" as="targetPoint" />
          </mxGeometry>
        </mxCell>
        <mxCell id="Ky6rxVkZPWlq-gp3w1kQ-469" value="" style="endArrow=none;html=1;rounded=0;" edge="1" parent="1">
          <mxGeometry width="50" height="50" relative="1" as="geometry">
            <mxPoint x="1575" y="832" as="sourcePoint" />
            <mxPoint x="1645" y="832" as="targetPoint" />
          </mxGeometry>
        </mxCell>
        <mxCell id="Ky6rxVkZPWlq-gp3w1kQ-470" value="" style="endArrow=none;html=1;rounded=0;" edge="1" parent="1">
          <mxGeometry width="50" height="50" relative="1" as="geometry">
            <mxPoint x="1645" y="771" as="sourcePoint" />
            <mxPoint x="1645" y="722" as="targetPoint" />
          </mxGeometry>
        </mxCell>
        <mxCell id="Ky6rxVkZPWlq-gp3w1kQ-471" value="" style="endArrow=none;html=1;rounded=0;" edge="1" parent="1">
          <mxGeometry width="50" height="50" relative="1" as="geometry">
            <mxPoint x="1645" y="832" as="sourcePoint" />
            <mxPoint x="1645" y="792" as="targetPoint" />
          </mxGeometry>
        </mxCell>
        <mxCell id="Ky6rxVkZPWlq-gp3w1kQ-472" value="" style="endArrow=none;html=1;rounded=0;" edge="1" parent="1">
          <mxGeometry width="50" height="50" relative="1" as="geometry">
            <mxPoint x="1355" y="682" as="sourcePoint" />
            <mxPoint x="1355" y="672" as="targetPoint" />
          </mxGeometry>
        </mxCell>
        <mxCell id="Ky6rxVkZPWlq-gp3w1kQ-473" value="" style="endArrow=none;html=1;rounded=0;" edge="1" parent="1">
          <mxGeometry width="50" height="50" relative="1" as="geometry">
            <mxPoint x="1355" y="772" as="sourcePoint" />
            <mxPoint x="1355" y="762" as="targetPoint" />
          </mxGeometry>
        </mxCell>
        <mxCell id="Ky6rxVkZPWlq-gp3w1kQ-474" value="" style="endArrow=none;html=1;rounded=0;" edge="1" parent="1">
          <mxGeometry width="50" height="50" relative="1" as="geometry">
            <mxPoint x="1355" y="862" as="sourcePoint" />
            <mxPoint x="1355" y="852" as="targetPoint" />
          </mxGeometry>
        </mxCell>
        <mxCell id="Ky6rxVkZPWlq-gp3w1kQ-475" value="" style="endArrow=none;html=1;rounded=0;" edge="1" parent="1">
          <mxGeometry width="50" height="50" relative="1" as="geometry">
            <mxPoint x="1355" y="952" as="sourcePoint" />
            <mxPoint x="1355" y="942" as="targetPoint" />
          </mxGeometry>
        </mxCell>
        <mxCell id="Ky6rxVkZPWlq-gp3w1kQ-476" value="" style="endArrow=none;html=1;rounded=0;" edge="1" parent="1">
          <mxGeometry width="50" height="50" relative="1" as="geometry">
            <mxPoint x="1535" y="762" as="sourcePoint" />
            <mxPoint x="1535" y="752" as="targetPoint" />
          </mxGeometry>
        </mxCell>
        <mxCell id="Ky6rxVkZPWlq-gp3w1kQ-477" value="" style="endArrow=none;html=1;rounded=0;" edge="1" parent="1">
          <mxGeometry width="50" height="50" relative="1" as="geometry">
            <mxPoint x="1535" y="872" as="sourcePoint" />
            <mxPoint x="1535" y="862" as="targetPoint" />
          </mxGeometry>
        </mxCell>
        <mxCell id="Ky6rxVkZPWlq-gp3w1kQ-478" value="" style="endArrow=none;html=1;rounded=0;" edge="1" parent="1">
          <mxGeometry width="50" height="50" relative="1" as="geometry">
            <mxPoint x="1715" y="822" as="sourcePoint" />
            <mxPoint x="1715" y="812" as="targetPoint" />
          </mxGeometry>
        </mxCell>
        <mxCell id="Ky6rxVkZPWlq-gp3w1kQ-479" value="" style="endArrow=none;html=1;rounded=0;" edge="1" parent="1">
          <mxGeometry width="50" height="50" relative="1" as="geometry">
            <mxPoint x="1755" y="782" as="sourcePoint" />
            <mxPoint x="1775" y="782" as="targetPoint" />
          </mxGeometry>
        </mxCell>
        <mxCell id="Ky6rxVkZPWlq-gp3w1kQ-480" value="" style="endArrow=none;html=1;rounded=0;" edge="1" parent="1">
          <mxGeometry width="50" height="50" relative="1" as="geometry">
            <mxPoint x="1295" y="637" as="sourcePoint" />
            <mxPoint x="1305" y="627" as="targetPoint" />
          </mxGeometry>
        </mxCell>
        <mxCell id="Ky6rxVkZPWlq-gp3w1kQ-483" value="" style="endArrow=none;html=1;rounded=0;" edge="1" parent="1">
          <mxGeometry width="50" height="50" relative="1" as="geometry">
            <mxPoint x="1295" y="657" as="sourcePoint" />
            <mxPoint x="1305" y="647" as="targetPoint" />
          </mxGeometry>
        </mxCell>
        <mxCell id="Ky6rxVkZPWlq-gp3w1kQ-486" value="4" style="text;html=1;align=center;verticalAlign=middle;resizable=0;points=[];autosize=1;strokeColor=none;fillColor=none;" vertex="1" parent="1">
          <mxGeometry x="1435" y="616" width="30" height="30" as="geometry" />
        </mxCell>
        <mxCell id="Ky6rxVkZPWlq-gp3w1kQ-487" value="" style="endArrow=none;html=1;rounded=0;" edge="1" parent="1">
          <mxGeometry width="50" height="50" relative="1" as="geometry">
            <mxPoint x="1445" y="646" as="sourcePoint" />
            <mxPoint x="1455" y="636" as="targetPoint" />
          </mxGeometry>
        </mxCell>
        <mxCell id="Ky6rxVkZPWlq-gp3w1kQ-488" value="4" style="text;html=1;align=center;verticalAlign=middle;resizable=0;points=[];autosize=1;strokeColor=none;fillColor=none;" vertex="1" parent="1">
          <mxGeometry x="1435" y="707" width="30" height="30" as="geometry" />
        </mxCell>
        <mxCell id="Ky6rxVkZPWlq-gp3w1kQ-489" value="" style="endArrow=none;html=1;rounded=0;" edge="1" parent="1">
          <mxGeometry width="50" height="50" relative="1" as="geometry">
            <mxPoint x="1445" y="737" as="sourcePoint" />
            <mxPoint x="1455" y="727" as="targetPoint" />
          </mxGeometry>
        </mxCell>
        <mxCell id="Ky6rxVkZPWlq-gp3w1kQ-491" value="" style="endArrow=none;html=1;rounded=0;" edge="1" parent="1">
          <mxGeometry width="50" height="50" relative="1" as="geometry">
            <mxPoint x="1295" y="727" as="sourcePoint" />
            <mxPoint x="1305" y="717" as="targetPoint" />
          </mxGeometry>
        </mxCell>
        <mxCell id="Ky6rxVkZPWlq-gp3w1kQ-495" value="" style="endArrow=none;html=1;rounded=0;" edge="1" parent="1">
          <mxGeometry width="50" height="50" relative="1" as="geometry">
            <mxPoint x="1295" y="748" as="sourcePoint" />
            <mxPoint x="1305" y="738" as="targetPoint" />
          </mxGeometry>
        </mxCell>
        <mxCell id="Ky6rxVkZPWlq-gp3w1kQ-497" value="" style="endArrow=none;html=1;rounded=0;" edge="1" parent="1">
          <mxGeometry width="50" height="50" relative="1" as="geometry">
            <mxPoint x="1295" y="814" as="sourcePoint" />
            <mxPoint x="1305" y="804" as="targetPoint" />
          </mxGeometry>
        </mxCell>
        <mxCell id="Ky6rxVkZPWlq-gp3w1kQ-503" value="" style="endArrow=none;html=1;rounded=0;" edge="1" parent="1">
          <mxGeometry width="50" height="50" relative="1" as="geometry">
            <mxPoint x="1295" y="836" as="sourcePoint" />
            <mxPoint x="1305" y="826" as="targetPoint" />
          </mxGeometry>
        </mxCell>
        <mxCell id="Ky6rxVkZPWlq-gp3w1kQ-505" value="" style="endArrow=none;html=1;rounded=0;" edge="1" parent="1">
          <mxGeometry width="50" height="50" relative="1" as="geometry">
            <mxPoint x="1295" y="906" as="sourcePoint" />
            <mxPoint x="1305" y="896" as="targetPoint" />
          </mxGeometry>
        </mxCell>
        <mxCell id="Ky6rxVkZPWlq-gp3w1kQ-507" value="" style="endArrow=none;html=1;rounded=0;" edge="1" parent="1">
          <mxGeometry width="50" height="50" relative="1" as="geometry">
            <mxPoint x="1295" y="927" as="sourcePoint" />
            <mxPoint x="1305" y="917" as="targetPoint" />
          </mxGeometry>
        </mxCell>
        <mxCell id="Ky6rxVkZPWlq-gp3w1kQ-510" value="4" style="text;html=1;align=center;verticalAlign=middle;resizable=0;points=[];autosize=1;strokeColor=none;fillColor=none;" vertex="1" parent="1">
          <mxGeometry x="1435" y="888" width="30" height="30" as="geometry" />
        </mxCell>
        <mxCell id="Ky6rxVkZPWlq-gp3w1kQ-511" value="" style="endArrow=none;html=1;rounded=0;" edge="1" parent="1">
          <mxGeometry width="50" height="50" relative="1" as="geometry">
            <mxPoint x="1445" y="918" as="sourcePoint" />
            <mxPoint x="1455" y="908" as="targetPoint" />
          </mxGeometry>
        </mxCell>
        <mxCell id="Ky6rxVkZPWlq-gp3w1kQ-512" value="4" style="text;html=1;align=center;verticalAlign=middle;resizable=0;points=[];autosize=1;strokeColor=none;fillColor=none;" vertex="1" parent="1">
          <mxGeometry x="1435" y="796.5" width="30" height="30" as="geometry" />
        </mxCell>
        <mxCell id="Ky6rxVkZPWlq-gp3w1kQ-513" value="" style="endArrow=none;html=1;rounded=0;" edge="1" parent="1">
          <mxGeometry width="50" height="50" relative="1" as="geometry">
            <mxPoint x="1445" y="827.5" as="sourcePoint" />
            <mxPoint x="1455" y="817.5" as="targetPoint" />
          </mxGeometry>
        </mxCell>
        <mxCell id="Ky6rxVkZPWlq-gp3w1kQ-514" value="4" style="text;html=1;align=center;verticalAlign=middle;resizable=0;points=[];autosize=1;strokeColor=none;fillColor=none;" vertex="1" parent="1">
          <mxGeometry x="1620" y="806" width="30" height="30" as="geometry" />
        </mxCell>
        <mxCell id="Ky6rxVkZPWlq-gp3w1kQ-515" value="" style="endArrow=none;html=1;rounded=0;" edge="1" parent="1">
          <mxGeometry width="50" height="50" relative="1" as="geometry">
            <mxPoint x="1630" y="837" as="sourcePoint" />
            <mxPoint x="1640" y="827" as="targetPoint" />
          </mxGeometry>
        </mxCell>
        <mxCell id="Ky6rxVkZPWlq-gp3w1kQ-516" value="4" style="text;html=1;align=center;verticalAlign=middle;resizable=0;points=[];autosize=1;strokeColor=none;fillColor=none;" vertex="1" parent="1">
          <mxGeometry x="1620" y="696.5" width="30" height="30" as="geometry" />
        </mxCell>
        <mxCell id="Ky6rxVkZPWlq-gp3w1kQ-517" value="" style="endArrow=none;html=1;rounded=0;" edge="1" parent="1">
          <mxGeometry width="50" height="50" relative="1" as="geometry">
            <mxPoint x="1630" y="727.5" as="sourcePoint" />
            <mxPoint x="1640" y="717.5" as="targetPoint" />
          </mxGeometry>
        </mxCell>
        <mxCell id="Ky6rxVkZPWlq-gp3w1kQ-518" value="4" style="text;html=1;align=center;verticalAlign=middle;resizable=0;points=[];autosize=1;strokeColor=none;fillColor=none;" vertex="1" parent="1">
          <mxGeometry x="1750" y="756" width="30" height="30" as="geometry" />
        </mxCell>
        <mxCell id="Ky6rxVkZPWlq-gp3w1kQ-519" value="" style="endArrow=none;html=1;rounded=0;" edge="1" parent="1">
          <mxGeometry width="50" height="50" relative="1" as="geometry">
            <mxPoint x="1760" y="787" as="sourcePoint" />
            <mxPoint x="1770" y="777" as="targetPoint" />
          </mxGeometry>
        </mxCell>
        <mxCell id="Ky6rxVkZPWlq-gp3w1kQ-520" value="a" style="text;html=1;align=center;verticalAlign=middle;resizable=0;points=[];autosize=1;strokeColor=none;fillColor=none;" vertex="1" parent="1">
          <mxGeometry x="1260" y="616" width="30" height="30" as="geometry" />
        </mxCell>
        <mxCell id="Ky6rxVkZPWlq-gp3w1kQ-522" value="b" style="text;html=1;align=center;verticalAlign=middle;resizable=0;points=[];autosize=1;strokeColor=none;fillColor=none;" vertex="1" parent="1">
          <mxGeometry x="1260" y="637" width="30" height="30" as="geometry" />
        </mxCell>
        <mxCell id="Ky6rxVkZPWlq-gp3w1kQ-525" value="c" style="text;html=1;align=center;verticalAlign=middle;resizable=0;points=[];autosize=1;strokeColor=none;fillColor=none;" vertex="1" parent="1">
          <mxGeometry x="1260" y="705" width="30" height="30" as="geometry" />
        </mxCell>
        <mxCell id="Ky6rxVkZPWlq-gp3w1kQ-526" value="d" style="text;html=1;align=center;verticalAlign=middle;resizable=0;points=[];autosize=1;strokeColor=none;fillColor=none;" vertex="1" parent="1">
          <mxGeometry x="1260" y="726" width="30" height="30" as="geometry" />
        </mxCell>
        <mxCell id="Ky6rxVkZPWlq-gp3w1kQ-527" value="e" style="text;html=1;align=center;verticalAlign=middle;resizable=0;points=[];autosize=1;strokeColor=none;fillColor=none;" vertex="1" parent="1">
          <mxGeometry x="1260" y="792" width="30" height="30" as="geometry" />
        </mxCell>
        <mxCell id="Ky6rxVkZPWlq-gp3w1kQ-528" value="f" style="text;html=1;align=center;verticalAlign=middle;resizable=0;points=[];autosize=1;strokeColor=none;fillColor=none;" vertex="1" parent="1">
          <mxGeometry x="1260" y="813" width="30" height="30" as="geometry" />
        </mxCell>
        <mxCell id="Ky6rxVkZPWlq-gp3w1kQ-529" value="g" style="text;html=1;align=center;verticalAlign=middle;resizable=0;points=[];autosize=1;strokeColor=none;fillColor=none;" vertex="1" parent="1">
          <mxGeometry x="1260" y="886" width="30" height="30" as="geometry" />
        </mxCell>
        <mxCell id="Ky6rxVkZPWlq-gp3w1kQ-530" value="h" style="text;html=1;align=center;verticalAlign=middle;resizable=0;points=[];autosize=1;strokeColor=none;fillColor=none;" vertex="1" parent="1">
          <mxGeometry x="1260" y="907" width="30" height="30" as="geometry" />
        </mxCell>
        <mxCell id="Ky6rxVkZPWlq-gp3w1kQ-531" value="sel[0]" style="text;html=1;align=center;verticalAlign=middle;resizable=0;points=[];autosize=1;strokeColor=none;fillColor=none;" vertex="1" parent="1">
          <mxGeometry x="1330" y="672" width="50" height="30" as="geometry" />
        </mxCell>
        <mxCell id="Ky6rxVkZPWlq-gp3w1kQ-532" value="sel[0]" style="text;html=1;align=center;verticalAlign=middle;resizable=0;points=[];autosize=1;strokeColor=none;fillColor=none;" vertex="1" parent="1">
          <mxGeometry x="1330" y="762" width="50" height="30" as="geometry" />
        </mxCell>
        <mxCell id="Ky6rxVkZPWlq-gp3w1kQ-533" value="out" style="text;html=1;align=center;verticalAlign=middle;resizable=0;points=[];autosize=1;strokeColor=none;fillColor=none;" vertex="1" parent="1">
          <mxGeometry x="1770" y="765.5" width="40" height="30" as="geometry" />
        </mxCell>
        <mxCell id="Ky6rxVkZPWlq-gp3w1kQ-534" value="sel[0]" style="text;html=1;align=center;verticalAlign=middle;resizable=0;points=[];autosize=1;strokeColor=none;fillColor=none;" vertex="1" parent="1">
          <mxGeometry x="1330" y="852" width="50" height="30" as="geometry" />
        </mxCell>
        <mxCell id="Ky6rxVkZPWlq-gp3w1kQ-535" value="sel[0]" style="text;html=1;align=center;verticalAlign=middle;resizable=0;points=[];autosize=1;strokeColor=none;fillColor=none;" vertex="1" parent="1">
          <mxGeometry x="1330" y="942" width="50" height="30" as="geometry" />
        </mxCell>
        <mxCell id="Ky6rxVkZPWlq-gp3w1kQ-536" value="sel[1]" style="text;html=1;align=center;verticalAlign=middle;resizable=0;points=[];autosize=1;strokeColor=none;fillColor=none;" vertex="1" parent="1">
          <mxGeometry x="1510" y="752" width="50" height="30" as="geometry" />
        </mxCell>
        <mxCell id="Ky6rxVkZPWlq-gp3w1kQ-537" value="sel[1]" style="text;html=1;align=center;verticalAlign=middle;resizable=0;points=[];autosize=1;strokeColor=none;fillColor=none;" vertex="1" parent="1">
          <mxGeometry x="1510" y="862" width="50" height="30" as="geometry" />
        </mxCell>
        <mxCell id="Ky6rxVkZPWlq-gp3w1kQ-538" value="sel[2]" style="text;html=1;align=center;verticalAlign=middle;resizable=0;points=[];autosize=1;strokeColor=none;fillColor=none;" vertex="1" parent="1">
          <mxGeometry x="1690" y="813" width="50" height="30" as="geometry" />
        </mxCell>
        <mxCell id="Ky6rxVkZPWlq-gp3w1kQ-539" value="Mux_8x1_4bit" style="text;html=1;align=center;verticalAlign=middle;resizable=0;points=[];autosize=1;strokeColor=none;fillColor=none;" vertex="1" parent="1">
          <mxGeometry x="1730" y="895" width="100" height="30" as="geometry" />
        </mxCell>
        <mxCell id="Ky6rxVkZPWlq-gp3w1kQ-540" value="&lt;font color=&quot;#999999&quot;&gt;con1&lt;/font&gt;" style="text;html=1;align=center;verticalAlign=middle;resizable=0;points=[];autosize=1;strokeColor=none;fillColor=none;" vertex="1" parent="1">
          <mxGeometry x="1395" y="618.5" width="50" height="30" as="geometry" />
        </mxCell>
        <mxCell id="Ky6rxVkZPWlq-gp3w1kQ-541" value="&lt;font color=&quot;#999999&quot;&gt;con2&lt;/font&gt;" style="text;html=1;align=center;verticalAlign=middle;resizable=0;points=[];autosize=1;strokeColor=none;fillColor=none;" vertex="1" parent="1">
          <mxGeometry x="1395" y="707" width="50" height="30" as="geometry" />
        </mxCell>
        <mxCell id="Ky6rxVkZPWlq-gp3w1kQ-542" value="&lt;font color=&quot;#999999&quot;&gt;con3&lt;/font&gt;" style="text;html=1;align=center;verticalAlign=middle;resizable=0;points=[];autosize=1;strokeColor=none;fillColor=none;" vertex="1" parent="1">
          <mxGeometry x="1395" y="798" width="50" height="30" as="geometry" />
        </mxCell>
        <mxCell id="Ky6rxVkZPWlq-gp3w1kQ-543" value="&lt;font color=&quot;#999999&quot;&gt;con4&lt;/font&gt;" style="text;html=1;align=center;verticalAlign=middle;resizable=0;points=[];autosize=1;strokeColor=none;fillColor=none;" vertex="1" parent="1">
          <mxGeometry x="1395" y="888" width="50" height="30" as="geometry" />
        </mxCell>
        <mxCell id="Ky6rxVkZPWlq-gp3w1kQ-544" value="&lt;font color=&quot;#999999&quot;&gt;con5&lt;/font&gt;" style="text;html=1;align=center;verticalAlign=middle;resizable=0;points=[];autosize=1;strokeColor=none;fillColor=none;" vertex="1" parent="1">
          <mxGeometry x="1570" y="700" width="50" height="30" as="geometry" />
        </mxCell>
        <mxCell id="Ky6rxVkZPWlq-gp3w1kQ-545" value="&lt;font color=&quot;#999999&quot;&gt;con6&lt;/font&gt;" style="text;html=1;align=center;verticalAlign=middle;resizable=0;points=[];autosize=1;strokeColor=none;fillColor=none;" vertex="1" parent="1">
          <mxGeometry x="1570" y="809.5" width="50" height="30" as="geometry" />
        </mxCell>
      </root>
    </mxGraphModel>
  </diagram>
</mxfile>
